<svg width="466" height="388" viewBox="0 0 466 388" fill="none" xmlns="http://www.w3.org/2000/svg">
<path d="M291.032 88.8039C270.842 86.0375 248.924 87.0105 227.652 91.6194C222.417 92.7543 219.092 97.9188 220.227 103.155C221.213 107.699 225.231 110.802 229.699 110.802C230.379 110.802 231.07 110.73 231.763 110.58C250.843 106.444 270.425 105.561 288.4 108.023C293.71 108.752 298.599 105.037 299.327 99.7294C300.054 94.4231 296.34 89.5314 291.032 88.8039Z" fill="#9D9D9C"/>
<path d="M361.733 139.047C357.035 141.622 355.316 147.519 357.892 152.216C358.658 153.612 359.386 155.028 360.057 156.426C361.726 159.901 365.194 161.928 368.808 161.928C370.216 161.928 371.646 161.621 373 160.971C377.829 158.652 379.864 152.857 377.544 148.027C376.723 146.318 375.833 144.588 374.9 142.887C372.324 138.187 366.425 136.472 361.733 139.047Z" fill="#9D9D9C"/>
<path d="M376.104 171.202C370.796 171.935 367.089 176.832 367.822 182.138C371.045 205.466 364.841 228.613 350.352 247.314C347.071 251.549 347.844 257.642 352.079 260.923C353.846 262.292 355.938 262.955 358.013 262.955C360.91 262.955 363.776 261.663 365.688 259.196C383.4 236.334 390.983 208.025 387.04 179.483C386.306 174.176 381.408 170.477 376.104 171.202Z" fill="#9D9D9C"/>
<path d="M436.659 164.899C432.481 164.899 428.512 165.8 424.92 167.407C419.675 136.496 405.054 109.987 381.863 89.757C359.052 69.8575 329.134 56.7039 294.668 51.303C296.009 47.3762 296.748 43.1747 296.748 38.7996C296.748 17.405 279.342 0 257.947 0C236.553 0 219.147 17.405 219.147 38.7996C219.147 43.2875 219.922 47.5953 221.33 51.6094C205.048 54.2231 189.375 58.4754 174.527 64.3238L125.381 21.7665C122.644 19.3966 118.813 18.75 115.449 20.085C112.083 21.4237 109.743 24.5247 109.38 28.1287L102.881 92.7162C74.803 108.613 56.9823 131.65 48.4821 162.987C43.6287 180.885 40.5431 181.923 30.5915 182.763C15.3099 184.049 7.9101 190.611 4.39254 195.89C-0.702837 203.537 -1.36852 213.375 2.41277 225.133L13.683 260.17C18.9802 276.632 28.7945 280.087 36.0952 280.087H46.877C71.9502 312.728 95.2163 320.49 125.508 328.042C124.533 340.505 122.832 355.279 121.18 368.598H96.4049C91.0476 368.598 86.7052 372.941 86.7052 378.297C86.7052 383.654 91.0476 387.997 96.4049 387.997H129.736H183.09H199.757C205.114 387.997 209.457 383.654 209.457 378.297C209.457 372.941 205.115 368.598 199.757 368.598H196.053L202.057 348.162C225.33 351.769 249.312 350.1 279.119 342.813C279.239 343.857 279.363 344.911 279.487 345.981C280.648 355.904 281.964 367.151 281.704 378.068C281.642 380.679 282.636 383.206 284.461 385.075C286.286 386.944 288.788 387.999 291.401 387.999H347.932H381.264C386.62 387.999 390.965 383.656 390.965 378.298C390.965 372.942 386.621 368.599 381.264 368.599H360.031C368.735 333.39 385.026 297.861 396.649 282.856C416.573 257.13 427.103 226.404 427.103 193.997C427.103 188.649 431.388 184.298 436.657 184.298C441.926 184.298 446.213 188.649 446.213 193.997C446.213 196.564 445.183 199.073 443.39 200.882C439.616 204.684 439.639 210.826 443.442 214.601C445.334 216.478 447.805 217.415 450.275 217.415C452.768 217.415 455.264 216.458 457.16 214.548C462.612 209.056 465.614 201.757 465.614 193.997C465.615 177.953 452.626 164.899 436.659 164.899ZM257.948 19.4012C268.645 19.4012 277.348 28.1041 277.348 38.8005C277.348 49.4978 268.645 58.2008 257.948 58.2008C247.251 58.2008 238.548 49.4978 238.548 38.8005C238.548 28.1041 247.251 19.4012 257.948 19.4012ZM381.314 270.977C365.83 290.963 348.415 332.541 340.094 368.599H300.999C300.641 359.846 299.655 351.413 298.756 343.728C298.175 338.764 297.626 334.074 297.313 329.847C297.098 326.953 295.598 324.305 293.224 322.634C290.85 320.961 287.852 320.446 285.055 321.216C249.183 331.137 222.922 333.031 197.237 327.555C192.271 326.498 187.338 329.442 185.907 334.308L175.831 368.599H140.73C142.7 352.557 144.68 334.723 145.42 321.091C145.673 316.429 142.569 312.248 138.032 311.141C104.199 302.892 83.7787 297.912 59.5796 264.678C57.7544 262.171 54.8389 260.688 51.7378 260.688H36.097C34.7193 260.688 33.1114 257.208 32.1529 254.229L20.8827 219.194C19.0548 213.512 18.933 209.058 20.539 206.648C22.1641 204.209 26.3128 202.592 32.223 202.095C54.3832 200.226 61.6148 188.694 67.2085 168.066C77.1474 131.425 100.089 115.901 116.481 107.412C119.391 105.904 121.343 103.03 121.673 99.7695L126.814 48.6694L166.341 82.8974C169.146 85.3255 173.09 85.9448 176.502 84.4843C194.168 76.9345 214.02 71.7536 234.16 69.4201C240.735 74.54 248.989 77.6019 257.948 77.6019C267.033 77.6019 275.394 74.4545 282.013 69.2036C343.546 75.9359 407.706 111.983 407.706 193.999C407.707 222.065 398.581 248.683 381.314 270.977Z" fill="#9D9D9C"/>
<path d="M115.911 155.131C110.566 155.131 106.21 159.491 106.21 164.833C106.21 170.175 110.566 174.532 115.911 174.532C121.253 174.532 125.61 170.175 125.61 164.833C125.611 159.49 121.253 155.131 115.911 155.131Z" fill="#9D9D9C"/>
<path d="M259.505 368.6H250.453C245.097 368.6 240.753 372.943 240.753 378.299C240.753 383.656 245.097 388 250.453 388H259.505C264.861 388 269.205 383.657 269.205 378.299C269.206 372.943 264.862 368.6 259.505 368.6Z" fill="#9D9D9C"/>
</svg>
