<svg width="388" height="388" viewBox="0 0 388 388" fill="none" xmlns="http://www.w3.org/2000/svg">
<path d="M368.599 322.039C330.004 301.572 300.399 290.095 274.045 285.695L276.772 281.946C278.066 280.652 278.712 278.712 278.066 276.772L272.006 252.532C288.034 229.873 297.465 201.546 297.465 174.6V148.733H303.932H316.865C320.745 148.733 323.331 146.146 323.331 142.266C323.331 138.387 320.745 135.8 316.865 135.8H310.399V129.334C310.399 78.2475 276.772 34.921 226.332 20.694V19.3997C226.332 9.05267 217.926 0 206.933 0H181.066C170.719 0 161.666 8.40628 161.666 19.3997V20.6933C111.226 34.9202 77.5995 78.2467 77.5995 129.333V135.799H71.1332C67.2533 135.799 64.6669 138.386 64.6669 142.266C64.6669 146.146 67.2533 148.732 71.1332 148.732H84.0666H90.5329V174.599C90.5329 201.545 99.9646 229.872 115.993 252.532L109.933 276.772C109.933 278.066 109.933 280.652 111.226 281.946L113.954 285.695C87.5998 290.096 57.9949 301.572 19.3997 322.039C7.11348 327.859 0 340.146 0 353.725V381.532C0 385.412 2.58637 387.998 6.46631 387.998H161.666H164.252H223.746H226.332H381.532C385.412 387.998 387.998 385.412 387.998 381.532V353.725C387.999 340.792 380.239 328.506 368.599 322.039ZM190.122 316.053L194.036 307.245L203.701 328.51L210.023 342.732H178.48L190.122 316.053ZM173.565 355.665H214.385L218.08 375.065H169.685L173.565 355.665ZM261.899 265.132L264.485 276.772L257.88 285.843C257.458 286.187 257.068 286.605 256.725 287.118L229.828 324.362L221.293 336.081L203.859 296.855C224.698 294.314 243.3 283.853 258.325 268.819C258.491 268.654 258.658 268.491 258.824 268.324C258.864 268.284 258.904 268.243 258.944 268.202C259.94 267.203 260.926 266.181 261.899 265.132ZM253.474 47.2966C254.192 47.7742 254.904 48.2596 255.608 48.7542C263.851 54.897 271.46 62.0929 277.419 69.8397L247.673 75.6596L253.474 47.2966ZM140.326 75.6596L110.58 69.8397C116.539 62.0921 124.149 54.8962 132.392 48.7535C133.095 48.2596 133.807 47.7742 134.525 47.2966L140.326 75.6596ZM90.5329 129.333C90.5329 112.125 94.8651 95.8913 102.706 81.7044L147.44 90.5337C148.086 90.5337 148.086 90.5337 148.734 90.5337C150.673 90.5337 151.967 89.8873 153.907 89.2401C155.847 87.9465 156.493 85.3602 155.847 83.4202L146.969 40.2139C151.645 37.9642 156.552 36.032 161.667 34.4433V51.7335C161.667 55.6135 164.253 58.1998 168.133 58.1998C172.013 58.1998 174.6 55.6135 174.6 51.7335V25.8668V19.3997C174.6 16.1662 177.186 12.9334 181.066 12.9334H206.933C210.166 12.9334 213.399 15.5198 213.399 19.3997V25.866V51.7328C213.399 55.6127 215.985 58.1991 219.865 58.1991C223.745 58.1991 226.332 55.6127 226.332 51.7328V34.4433C231.617 36.0843 236.682 38.0906 241.498 40.4366L232.799 82.7738C232.799 84.7138 233.445 87.3001 234.739 88.5937C236.032 89.8873 237.325 90.5337 239.265 90.5337C239.911 90.5337 239.911 90.5337 240.558 90.5337L285.003 81.1767C293.028 95.4884 297.465 111.913 297.465 129.333V135.799H290.998H97H90.5337L90.5329 129.333ZM103.466 148.733H284.532V174.6C284.532 202.797 274.859 227.854 260.336 246.9L259.959 247.026C259.313 247.672 258.665 248.319 258.019 248.966C254.765 253.304 251.332 257.259 247.744 260.826C232.517 275.011 214.356 283.603 196.856 284.454C195.975 284.076 194.988 283.886 193.999 283.886C193.005 283.886 192.109 284.081 191.306 284.463C180.594 283.971 169.63 280.576 159.238 274.768C148.71 268.719 138.806 259.999 129.979 248.966C129.332 248.319 128.685 247.672 128.039 247.026L127.661 246.9C113.138 227.853 103.466 202.796 103.466 174.6L103.466 148.733ZM184.139 296.857L166.706 336.082L158.171 324.363L131.273 287.12C131.067 286.914 130.839 286.71 130.604 286.509L123.513 276.773L126.1 265.133C126.976 266.077 127.865 266.997 128.763 267.902C143.944 283.427 162.877 294.264 184.139 296.857ZM12.9334 353.725C12.9334 345.319 17.4597 337.558 25.2204 333.679C66.4397 311.78 96.1124 300.79 122.545 297.507L161.135 350.567L156.235 375.064H12.9334V353.725ZM375.066 375.066H231.765L226.865 350.569L265.873 296.934C292.213 300.909 322.416 311.89 362.779 333.033C370.539 337.559 375.066 345.32 375.066 353.726V375.066Z" fill="#9D9D9C"/>
</svg>
