<svg width="363" height="371" viewBox="0 0 363 371" fill="none" xmlns="http://www.w3.org/2000/svg">
<path d="M361.292 360.049L9.95199 8.70907C8.28551 7.0426 5.77606 6.54359 3.59904 7.44569C1.42058 8.34708 0 10.4743 0 12.8316V364.171C0 367.392 2.61041 370.001 5.82942 370.001H52.4677H99.106H145.744H192.383H239.021H285.659H357.171C359.529 370.001 361.654 368.582 362.556 366.402C363.458 364.223 362.959 361.717 361.292 360.049ZM291.488 358.341V339.297C291.488 336.077 288.877 333.468 285.658 333.468C282.439 333.468 279.829 336.078 279.829 339.297V358.341H244.85V339.297C244.85 336.077 242.239 333.468 239.02 333.468C235.8 333.468 233.191 336.078 233.191 339.297V358.341H198.212V339.297C198.212 336.077 195.602 333.468 192.383 333.468C189.163 333.468 186.553 336.078 186.553 339.297V358.341H151.574V339.297C151.574 336.077 148.964 333.468 145.745 333.468C142.526 333.468 139.916 336.078 139.916 339.297V358.341H104.937V339.297C104.937 336.077 102.326 333.468 99.1074 333.468C95.8884 333.468 93.278 336.078 93.278 339.297V358.341H58.2979V339.297C58.2979 336.077 55.6875 333.468 52.4684 333.468C49.2494 333.468 46.639 336.078 46.639 339.297V358.341H11.6596V26.9055L343.095 358.341H291.488Z" fill="#9D9D9C"/>
<path d="M249.354 313.402L56.5831 121.294C54.9152 119.631 52.4079 119.136 50.2323 120.04C48.0567 120.943 46.6383 123.068 46.6383 125.424V317.532C46.6383 320.752 49.2487 323.361 52.4677 323.361H245.238C247.598 323.361 249.725 321.939 250.626 319.758C251.528 317.577 251.025 315.068 249.354 313.402ZM58.2979 311.702V139.464L231.13 311.702H58.2979Z" fill="#9D9D9C"/>
<path d="M128.102 157.952L41.0438 70.8944C38.7673 68.6185 35.0759 68.6185 32.8001 70.8944C30.5236 73.1716 30.5236 76.8622 32.8001 79.1395L119.858 166.197C120.996 167.335 122.488 167.904 123.98 167.904C125.471 167.904 126.964 167.335 128.102 166.197C130.378 163.919 130.378 160.229 128.102 157.952Z" fill="#9D9D9C"/>
<path d="M159.194 192.146L143.647 176.599C141.371 174.324 137.679 174.324 135.404 176.599C133.127 178.877 133.127 182.567 135.404 184.845L150.95 200.391C152.088 201.529 153.581 202.098 155.072 202.098C156.563 202.098 158.056 201.529 159.194 200.391C161.47 198.113 161.47 194.422 159.194 192.146Z" fill="#9D9D9C"/>
<path d="M361.294 199.512L317.321 155.543L182.787 21.0083C182.784 21.0054 182.78 21.0018 182.777 20.9982L182.76 20.9816C182.733 20.9542 182.703 20.9326 182.676 20.9059C182.566 20.7999 182.454 20.6953 182.336 20.598C182.284 20.5547 182.228 20.5172 182.175 20.4761C182.076 20.4019 181.979 20.3261 181.876 20.2569C181.804 20.2086 181.728 20.1668 181.655 20.1213C181.567 20.068 181.479 20.0125 181.388 19.9634C181.297 19.9144 181.204 19.8733 181.111 19.8307C181.032 19.7932 180.954 19.7536 180.873 19.7204C180.76 19.6735 180.645 19.6346 180.53 19.5964C180.464 19.574 180.401 19.5481 180.334 19.5272C180.192 19.4846 180.048 19.45 179.904 19.4183C179.862 19.4089 179.822 19.3959 179.78 19.3873L179.754 19.3815C179.752 19.3808 179.749 19.3808 179.747 19.3801L102.907 4.01327C102.692 3.96712 102.474 3.93323 102.253 3.91232C102.222 3.90943 102.192 3.90943 102.161 3.90655C102.112 3.90294 102.061 3.90222 102.011 3.89862C101.905 3.89285 101.799 3.88347 101.692 3.88491C101.62 3.88491 101.55 3.89068 101.478 3.89285C101.421 3.89501 101.363 3.89862 101.306 3.90222C101.276 3.90438 101.245 3.90438 101.216 3.90655C101.188 3.90871 101.16 3.90799 101.132 3.91087C101.012 3.92241 100.894 3.94188 100.776 3.96063C100.733 3.96784 100.689 3.97289 100.647 3.98082C100.202 4.06159 99.7715 4.19211 99.3634 4.37022C99.3295 4.38464 99.2956 4.40267 99.2617 4.41853C99.1442 4.4719 99.0266 4.52598 98.9134 4.58727C98.8651 4.61395 98.8204 4.64424 98.7728 4.67092C98.7238 4.69904 98.6754 4.72933 98.6271 4.7589C98.5629 4.79856 98.4959 4.83605 98.4331 4.8786C98.3646 4.92475 98.3012 4.97595 98.2348 5.02498C98.2211 5.03508 98.2074 5.04517 98.1945 5.05527C98.1562 5.08411 98.1166 5.1108 98.0791 5.13964C98.0459 5.16632 98.0113 5.19012 97.9796 5.21752C97.9248 5.26151 97.8765 5.31054 97.8231 5.35741C97.7337 5.43674 97.6428 5.51606 97.5577 5.60043C97.5231 5.63504 97.4914 5.67326 97.4582 5.70859C97.3616 5.81027 97.2664 5.91411 97.177 6.02227C97.159 6.04391 97.1445 6.0677 97.1265 6.08934L97.1251 6.0915C97.0941 6.13116 97.0645 6.17154 97.0342 6.21193C96.9679 6.29918 96.9022 6.38499 96.841 6.47729C96.8337 6.48739 96.8287 6.4982 96.8215 6.50902C96.7919 6.55517 96.7652 6.60349 96.7364 6.64892C96.7075 6.69579 96.6787 6.74122 96.652 6.78809C96.6196 6.84506 96.5842 6.89986 96.5532 6.95827C96.5439 6.97558 96.5366 6.9936 96.5287 7.01019C96.4826 7.09816 96.44 7.18902 96.3989 7.27988C96.3823 7.31522 96.3636 7.34911 96.3484 7.38372C96.3376 7.40968 96.3246 7.4342 96.3131 7.46016C96.2359 7.6426 96.1703 7.82937 96.1119 8.01974C96.1097 8.02839 96.1083 8.03777 96.1047 8.04642C96.0448 8.24617 95.9973 8.45168 95.959 8.65792C95.9489 8.71128 95.9425 8.76681 95.9345 8.82017C95.9179 8.92833 95.8985 9.03506 95.8884 9.14466C95.8826 9.2038 95.8826 9.26148 95.879 9.32062C95.8747 9.38407 95.8711 9.44753 95.8689 9.51099C95.8667 9.57877 95.861 9.64583 95.861 9.71362C95.861 9.81746 95.8696 9.92058 95.8747 10.0237C95.8775 10.0792 95.8783 10.1333 95.8833 10.1888C95.8855 10.2198 95.8862 10.2508 95.8891 10.2818C95.91 10.4939 95.941 10.703 95.985 10.9099L111.356 87.7669C111.358 87.7741 111.359 87.7806 111.36 87.7878L111.363 87.8058C111.385 87.9162 111.415 88.0229 111.443 88.1311C111.475 88.2537 111.511 88.3748 111.551 88.4952C111.588 88.6063 111.624 88.718 111.667 88.8255C111.693 88.8889 111.723 88.951 111.751 89.0137C111.797 89.1175 111.842 89.2214 111.893 89.3216C111.924 89.3829 111.96 89.442 111.994 89.5026C112.05 89.6036 112.107 89.7031 112.17 89.7997C112.206 89.856 112.243 89.9108 112.281 89.9663C112.35 90.0658 112.421 90.1631 112.495 90.2576C112.534 90.3074 112.573 90.3564 112.614 90.4047C112.698 90.5057 112.787 90.603 112.879 90.6975C112.907 90.7263 112.93 90.7573 112.958 90.7855L247.519 225.345L291.49 269.316C292.628 270.453 294.121 271.022 295.612 271.022C297.103 271.022 298.596 270.453 299.734 269.316L361.292 207.758C362.386 206.664 363 205.181 363 203.635C363 202.089 362.388 200.606 361.294 199.512ZM178.638 33.3493L304.954 159.665L293.412 171.207L167.096 44.8914L178.638 33.3493ZM285.167 179.452L271.427 193.193L145.11 66.8765L151.973 60.0137C151.975 60.0115 151.979 60.0094 151.981 60.0065L158.852 53.1358L285.167 179.452ZM111.865 30.868L109.121 17.1461L112.957 17.9133L122.843 19.8906L111.865 30.868ZM114.614 44.6094L136.585 22.6387L166.814 28.6845L143.737 51.7613C143.734 51.7635 143.732 51.7671 143.729 51.7693L132.751 62.7474C132.749 62.7496 132.746 62.7517 132.743 62.7546L120.659 74.8389L114.614 44.6094ZM125.324 86.6643L136.866 75.1223L263.182 201.437L251.64 212.979L125.324 86.6643ZM295.61 256.951L259.884 221.224L275.548 205.56L313.197 167.911L348.924 203.637L295.61 256.951Z" fill="#9D9D9C"/>
<path d="M330.2 201.478L314.654 185.931C312.378 183.656 308.687 183.656 306.41 185.931C304.133 188.209 304.133 191.899 306.41 194.177L321.956 209.723C323.094 210.861 324.587 211.43 326.078 211.43C327.569 211.43 329.062 210.861 330.2 209.723C332.476 207.445 332.476 203.754 330.2 201.478Z" fill="#9D9D9C"/>
<path d="M361.291 72.9934L317.321 29.0232L295.336 7.03667C287.002 -1.29644 273.441 -1.29572 265.106 7.03667L245.318 26.8238C236.984 35.1591 236.984 48.7195 245.318 57.0548L267.304 79.0399L311.274 123.011C312.368 124.104 313.85 124.718 315.396 124.718C316.942 124.718 318.426 124.103 319.518 123.011L361.29 81.2385C363.568 78.9613 363.568 75.2707 361.291 72.9934ZM253.564 48.8089C249.776 45.021 249.776 38.8569 253.564 35.0697L273.351 15.2825C277.139 11.4938 283.303 11.4938 287.092 15.2825L304.955 33.1458L271.428 66.6729L253.564 48.8089ZM315.398 110.644L279.672 74.9166L313.199 41.3902L348.926 77.116L315.398 110.644Z" fill="#9D9D9C"/>
<path d="M334.909 72.9946L317.321 55.4061C315.045 53.1303 311.354 53.1303 309.078 55.4061C306.801 57.6833 306.801 61.374 309.078 63.6512L326.666 81.2397C327.803 82.3776 329.296 82.9466 330.787 82.9466C332.279 82.9466 333.771 82.3776 334.909 81.2397C337.186 78.9625 337.186 75.2718 334.909 72.9946Z" fill="#9D9D9C"/>
</svg>
