<svg width="495" height="366" viewBox="0 0 495 366" fill="none" xmlns="http://www.w3.org/2000/svg">
<path d="M28.1531 0C12.723 0 0 12.7126 0 28.1301V286.865C0 303.287 13.2645 316.541 29.7 316.541H70.2281C74.9461 344.593 99.348 366 128.7 366C158.052 366 182.454 344.593 187.172 316.541H278.747C286.056 316.541 292.591 313.449 297.619 308.812C302.762 313.333 309.336 316.463 316.8 316.541H327.628C332.346 344.593 356.748 366 386.1 366C418.778 366 445.5 339.3 445.5 306.649C445.5 273.998 418.778 247.297 386.1 247.297C356.748 247.297 332.346 268.704 327.628 296.757H316.8C314.944 296.757 312.121 295.482 309.994 293.356C307.867 291.231 306.9 288.681 306.9 286.865V98.9189C306.9 95.2095 313.087 89.027 316.8 89.027H396C403.773 89.027 414.717 97.3347 422.297 106.338C422.374 106.454 422.529 106.531 422.606 106.647L424.153 108.811H376.2C360.422 108.811 346.5 121.562 346.5 138.486V178.054C346.5 186.284 350.212 193.51 355.472 198.765C360.731 204.02 367.963 207.73 376.2 207.73H475.2V286.865C475.2 290.574 469.012 296.757 465.3 296.757H445.5V316.541H465.3C481.736 316.541 495 303.287 495 286.865V191.655C495 169.012 479.222 148.997 479.222 148.997H478.912L438.075 94.5912V94.2821L437.766 93.973C428.639 82.9605 414.949 69.2432 396 69.2432H316.8C313.281 69.2432 310.032 69.9774 306.9 71.098V28.7483C306.9 13.5627 294.912 0 279.056 0H28.1531ZM28.1531 19.7838H279.056C283.31 19.7838 287.1 23.8796 287.1 28.7483V288.41C287.1 293.047 283.426 296.757 278.747 296.757H187.172C182.454 268.704 158.052 247.297 128.7 247.297C99.348 247.297 74.9461 268.704 70.2281 296.757H29.7C25.9875 296.757 19.8 290.536 19.8 286.865V28.1301C19.8 23.4932 23.4352 19.7838 28.1531 19.7838ZM376.2 128.595H439.003L463.134 160.743C463.134 160.743 472.106 176.083 473.962 187.946H376.2C374.537 187.946 371.869 186.709 369.703 184.546C367.537 182.382 366.3 179.716 366.3 178.054V138.486C366.3 133.502 372.178 128.595 376.2 128.595ZM128.7 267.081C150.704 267.081 168.3 284.662 168.3 306.649C168.3 328.635 150.704 346.216 128.7 346.216C106.696 346.216 89.1 328.635 89.1 306.649C89.1 284.662 106.696 267.081 128.7 267.081ZM386.1 267.081C408.104 267.081 425.7 284.662 425.7 306.649C425.7 328.635 408.104 346.216 386.1 346.216C364.096 346.216 346.5 328.635 346.5 306.649C346.5 284.662 364.096 267.081 386.1 267.081Z" fill="#9D9D9C"/>
</svg>
