<svg width="170" height="158" viewBox="0 0 170 158" fill="none" xmlns="http://www.w3.org/2000/svg">
<path fill-rule="evenodd" clip-rule="evenodd" d="M54.6757 30.6953L81.2618 46.2663V158H73.9145V52.0459L55.3891 40.9116V158H0V51.077L54.6757 30.6953ZM35.7341 111.151H45.3833V95.7926L35.7341 96.464V111.151ZM35.7341 90.0129L45.3833 89.3415V70.8552L35.7341 72.6401V90.0129ZM35.7341 66.0955L45.3833 64.3106V47.8642L35.7341 50.771V66.0955ZM20.7253 111.151H29.3042V96.906L20.7253 97.501V111.151ZM20.7253 91.0499L29.3042 90.4549V73.83L20.7253 75.4194V91.0499ZM20.7253 68.8748L29.3042 67.2854V52.7089L20.7253 55.3012V68.8663V68.8748ZM7.50017 111.151H14.2953V97.9514L7.50017 98.4274V111.151ZM7.50017 91.9763L14.2953 91.5003V76.6093L7.50017 77.8672V91.9678V91.9763ZM7.50017 71.3312L14.2953 70.0732V57.2561L7.50017 59.3045V71.3312Z" fill="#008AAF"/>
<path fill-rule="evenodd" clip-rule="evenodd" d="M96.1935 101.962L102.989 102.319V89.1215L96.1935 89.2319V101.954V101.962ZM109.419 102.659L117.998 103.118V88.875L109.419 89.0195V102.668V102.659ZM124.427 103.458L134.077 103.968V88.6116L124.427 88.7645V103.45V103.458ZM96.1935 40.6218L102.989 39.364V26.5486L96.1935 28.5967V40.6218ZM96.1935 61.2641L102.989 60.7882V45.8992L96.1935 47.157V61.2556V61.2641ZM96.1935 80.4362H102.989V67.2384L96.1935 67.7143V80.4362ZM109.419 38.1658L117.998 36.5766V22.002L109.419 24.594V38.1658ZM109.419 60.3378L117.998 59.7429V43.1203L109.419 44.7094V60.3378ZM109.419 80.4362H117.998V66.1931L109.419 66.788V80.4362ZM124.427 35.3868L134.077 33.6022V17.158L124.427 20.0729V35.3953V35.3868ZM124.427 59.301L134.077 58.6296V40.1459L124.427 41.9305V59.301ZM124.427 80.4362H134.077V65.0798L124.427 65.7512V80.4362ZM143.369 0L169.955 15.5688V158H162.608V21.3477L144.082 10.2149V158H88.6934V20.3789L143.369 0Z" fill="#008AAF"/>
</svg>
