<svg width="363" height="363" viewBox="0 0 363 363" fill="none" xmlns="http://www.w3.org/2000/svg">
<path d="M299.802 0H223.85H139.15H63.1983L0 101.114V363H139.15H223.85H363V101.114L299.802 0ZM293.098 12.1L346.036 96.8H223.85V12.1H293.098ZM181.5 12.1H211.75V96.8H181.5H151.25V12.1H181.5ZM151.25 108.9H157.3C157.3 112.24 160.01 114.95 163.35 114.95C166.69 114.95 169.4 112.24 169.4 108.9H193.6C193.6 112.24 196.31 114.95 199.65 114.95C202.99 114.95 205.7 112.24 205.7 108.9H211.75V130.595L205.7 124.545L181.5 148.745L157.3 124.545L151.25 130.595V108.9ZM69.9017 12.1H139.15V96.8H16.9642L69.9017 12.1ZM151.25 350.9V335.255L157.3 341.305L181.5 317.105L205.7 341.305L211.75 335.255V350.9H151.25ZM223.85 350.9V306.045L205.7 324.195L181.5 299.995L157.3 324.195L139.15 306.045V350.9H12.1V108.9H139.15V159.805L157.3 141.655L181.5 165.855L205.7 141.655L223.85 159.805V108.9H350.9V350.9H223.85Z" fill="#9D9D9C"/>
<path d="M121 290.4H242V181.5H121V290.4ZM133.1 193.6H229.9V278.3H133.1V193.6Z" fill="#9D9D9C"/>
<path d="M187.55 254.102H151.25C147.91 254.102 145.2 256.806 145.2 260.152C145.2 263.497 147.91 266.202 151.25 266.202H187.55C190.89 266.202 193.6 263.497 193.6 260.152C193.6 256.806 190.89 254.102 187.55 254.102Z" fill="#9D9D9C"/>
<path d="M211.75 254.102H205.7C202.36 254.102 199.65 256.806 199.65 260.152C199.65 263.497 202.36 266.202 205.7 266.202H211.75C215.09 266.202 217.8 263.497 217.8 260.152C217.8 256.806 215.09 254.102 211.75 254.102Z" fill="#9D9D9C"/>
<path d="M211.75 205.699H175.45C172.11 205.699 169.4 208.404 169.4 211.749C169.4 215.095 172.11 217.799 175.45 217.799H211.75C215.09 217.799 217.8 215.095 217.8 211.749C217.8 208.404 215.09 205.699 211.75 205.699Z" fill="#9D9D9C"/>
<path d="M211.75 229.9H199.65C196.31 229.9 193.6 232.605 193.6 235.95C193.6 239.296 196.31 242 199.65 242H211.75C215.09 242 217.8 239.296 217.8 235.95C217.8 232.605 215.09 229.9 211.75 229.9Z" fill="#9D9D9C"/>
<path d="M151.25 242H163.35C166.69 242 169.4 239.296 169.4 235.95C169.4 232.605 166.69 229.9 163.35 229.9H151.25C147.91 229.9 145.2 232.605 145.2 235.95C145.2 239.296 147.91 242 151.25 242Z" fill="#9D9D9C"/>
<path d="M151.25 217.799H157.3C160.64 217.799 163.35 215.095 163.35 211.749C163.35 208.404 160.64 205.699 157.3 205.699H151.25C147.91 205.699 145.2 208.404 145.2 211.749C145.2 215.095 147.91 217.799 151.25 217.799Z" fill="#9D9D9C"/>
<path d="M185.795 240.248C186.884 239.099 187.55 237.526 187.55 235.953C187.55 234.38 186.884 232.801 185.795 231.657C183.496 229.419 179.443 229.419 177.204 231.657C176.115 232.801 175.45 234.313 175.45 235.953C175.45 237.586 176.115 239.099 177.204 240.248C178.354 241.337 179.927 242.003 181.5 242.003C183.073 242.003 184.646 241.337 185.795 240.248Z" fill="#9D9D9C"/>
<path d="M181.5 24.2016C184.841 24.2016 187.55 21.4929 187.55 18.1516C187.55 14.8102 184.841 12.1016 181.5 12.1016C178.159 12.1016 175.45 14.8102 175.45 18.1516C175.45 21.4929 178.159 24.2016 181.5 24.2016Z" fill="#9D9D9C"/>
<path d="M163.35 42.352C166.691 42.352 169.4 39.6433 169.4 36.302C169.4 32.9606 166.691 30.252 163.35 30.252C160.009 30.252 157.3 32.9606 157.3 36.302C157.3 39.6433 160.009 42.352 163.35 42.352Z" fill="#9D9D9C"/>
<path d="M163.35 78.6508C166.691 78.6508 169.4 75.9421 169.4 72.6008C169.4 69.2595 166.691 66.5508 163.35 66.5508C160.009 66.5508 157.3 69.2595 157.3 72.6008C157.3 75.9421 160.009 78.6508 163.35 78.6508Z" fill="#9D9D9C"/>
<path d="M181.5 60.5004C184.841 60.5004 187.55 57.7917 187.55 54.4504C187.55 51.1091 184.841 48.4004 181.5 48.4004C178.159 48.4004 175.45 51.1091 175.45 54.4504C175.45 57.7917 178.159 60.5004 181.5 60.5004Z" fill="#9D9D9C"/>
<path d="M199.65 42.352C202.991 42.352 205.7 39.6433 205.7 36.302C205.7 32.9606 202.991 30.252 199.65 30.252C196.309 30.252 193.6 32.9606 193.6 36.302C193.6 39.6433 196.309 42.352 199.65 42.352Z" fill="#9D9D9C"/>
<path d="M199.65 78.6508C202.991 78.6508 205.7 75.9421 205.7 72.6008C205.7 69.2595 202.991 66.5508 199.65 66.5508C196.309 66.5508 193.6 69.2595 193.6 72.6008C193.6 75.9421 196.309 78.6508 199.65 78.6508Z" fill="#9D9D9C"/>
<path d="M181.5 96.8012C184.841 96.8012 187.55 94.0925 187.55 90.7512C187.55 87.4098 184.841 84.7012 181.5 84.7012C178.159 84.7012 175.45 87.4098 175.45 90.7512C175.45 94.0925 178.159 96.8012 181.5 96.8012Z" fill="#9D9D9C"/>
<path d="M181.5 133.102C184.841 133.102 187.55 130.393 187.55 127.052C187.55 123.711 184.841 121.002 181.5 121.002C178.159 121.002 175.45 123.711 175.45 127.052C175.45 130.393 178.159 133.102 181.5 133.102Z" fill="#9D9D9C"/>
</svg>
