<svg width="388" height="388" viewBox="0 0 388 388" fill="none" xmlns="http://www.w3.org/2000/svg">
<path d="M194 0C86.8574 0 0 86.8574 0 194C0 301.143 86.8574 388 194 388C301.143 388 388 301.143 388 194C388 86.8574 301.143 0 194 0ZM194 375.875C93.5504 375.875 12.125 294.444 12.125 194C12.125 93.5504 93.5504 12.125 194 12.125C294.45 12.125 375.875 93.5504 375.875 194C375.875 294.444 294.45 375.875 194 375.875Z" fill="#9D9D9C"/>
<path d="M194 200.062C197.348 200.062 200.062 197.348 200.062 194C200.062 190.652 197.348 187.938 194 187.938C190.652 187.938 187.938 190.652 187.938 194C187.938 197.348 190.652 200.062 194 200.062Z" fill="#9D9D9C"/>
<path d="M223.894 198.171C224.082 196.795 224.312 195.431 224.312 194C224.312 184.112 219.511 175.424 212.188 169.883V84.875C212.188 74.8294 204.046 66.6875 194 66.6875C183.954 66.6875 175.812 74.8294 175.812 84.875V169.883C168.489 175.418 163.688 184.112 163.688 194C163.688 210.745 177.255 224.312 194 224.312C195.425 224.312 196.795 224.082 198.171 223.894L249.733 275.456C256.838 282.561 268.344 282.555 275.45 275.45C282.555 268.344 282.555 256.838 275.45 249.733L223.894 198.171ZM187.938 84.875C187.938 81.5224 190.647 78.8125 194 78.8125C197.353 78.8125 200.062 81.5224 200.062 84.875V164.3C198.104 163.9 196.079 163.687 194 163.687C191.921 163.687 189.896 163.9 187.938 164.3V84.875ZM175.812 194C175.812 183.954 183.954 175.812 194 175.812C204.046 175.812 212.188 183.954 212.188 194C212.188 204.046 204.046 212.187 194 212.187C183.954 212.187 175.812 204.046 175.812 194ZM266.877 266.877C264.507 269.254 260.675 269.254 258.305 266.883L210.696 219.275C214.103 217.019 217.019 214.103 219.275 210.696L266.877 258.305C269.242 260.669 269.242 264.507 266.877 266.877Z" fill="#9D9D9C"/>
<path d="M194 24.25C100.25 24.25 24.25 100.25 24.25 194C24.25 287.75 100.25 363.75 194 363.75C287.75 363.75 363.75 287.75 363.75 194C363.75 100.25 287.75 24.25 194 24.25ZM309.642 301.064L296.893 288.308C294.51 285.944 290.679 285.944 288.314 288.308C285.944 290.685 285.944 294.51 288.314 296.887L301.07 309.642C274.34 334.408 239.02 350 200.069 351.473L200.075 333.444C200.062 330.091 197.353 327.381 194.012 327.381C190.653 327.387 187.95 330.091 187.95 333.444L187.944 351.473C148.992 350 113.672 334.414 86.9423 309.654L99.6978 296.899C102.062 294.522 102.062 290.691 99.6978 288.326C97.3152 285.956 93.4959 285.956 91.1254 288.326L78.3699 301.082C53.6107 274.352 38.0179 239.032 36.5387 200.081H54.5686C57.9211 200.075 60.6311 197.365 60.6311 194.018C60.625 190.66 57.9211 187.956 54.5686 187.956H36.5266C37.9998 149.004 53.5864 113.678 78.3457 86.9484L91.1012 99.7039C93.4716 102.074 97.3031 102.074 99.6736 99.7039C102.044 97.3274 102.044 93.5019 99.6736 91.1315L86.9181 78.376C113.648 53.6107 148.974 38.0179 187.925 36.5447V54.5625C187.925 57.9151 190.635 60.625 193.988 60.625C197.34 60.625 200.05 57.9151 200.05 54.5625V36.5266C239.002 37.9998 274.328 53.5864 301.058 78.3517L288.302 91.1072C285.932 93.4777 285.932 97.3092 288.302 99.6796C290.673 102.05 294.504 102.05 296.875 99.6796L309.636 86.9241C334.395 113.654 349.988 148.98 351.461 187.931H333.438C330.085 187.931 327.375 190.641 327.375 193.994C327.375 197.347 330.085 200.056 333.438 200.056H351.473C349.994 239.014 334.408 274.334 309.642 301.064Z" fill="#9D9D9C"/>
</svg>
