<svg width="1385" height="1385" viewBox="0 0 1385 1385" fill="none" xmlns="http://www.w3.org/2000/svg">
<path d="M1384.4 740.502V625.614C1384.4 625.614 1384.4 562.597 1321.38 562.597H1213.99H599.89L564.422 598.062H1311.09C1348.87 598.062 1348.87 635.838 1348.87 635.838V776.776C1348.87 808.949 1321.61 813.686 1313.4 814.437C1327.5 813.455 1384.34 805.368 1384.34 740.502" fill="#9D9D9C"/>
<path d="M1384.4 319.421V0H35.5255L0 35.4655H1348.87V354.944L1384.4 319.421Z" fill="#9D9D9C"/>
<path d="M1384.4 1148.24V1022.26H1270.78L1235.31 1057.73H1348.87V1183.76L1384.4 1148.24Z" fill="#9D9D9C"/>
<path d="M354.964 354.944V1348.79L319.496 1384.31V354.944H354.964Z" fill="#9D9D9C"/>
<path d="M738.24 813.398L1202.96 1334.18L1223.58 1356.59L1200.36 1384.31L690.699 813.398H738.24Z" fill="#9D9D9C"/>
<path d="M0 35.4658V1384.31H319.499V354.944H1348.87V35.4658H0Z" fill="#008AAF"/>
<path d="M1235.31 1057.73L1348.87 1183.42V1057.73H1235.31Z" fill="#008AAF"/>
<path d="M1348.88 776.776V635.896C1348.88 635.896 1348.88 598.12 1311.04 598.12H564.367V1384.31H1200.82L692.144 814.61H1311.04C1311.04 814.61 1348.88 814.61 1348.88 776.776Z" fill="#008AAF"/>
</svg>
