<svg width="1385" height="2060" viewBox="0 0 1385 2060" fill="none" xmlns="http://www.w3.org/2000/svg">
<path d="M1384.46 740.503V625.615C1384.46 625.615 1384.46 562.598 1321.44 562.598H1214.05H599.948L564.48 598.063H1311.15C1348.93 598.063 1348.93 635.839 1348.93 635.839V776.777C1348.93 808.95 1321.67 813.687 1313.46 814.438C1327.56 813.456 1384.4 805.369 1384.4 740.503" fill="#9D9D9C"/>
<path d="M1384.46 319.421V0H35.5841L0.0585938 35.4655H1348.93V354.944L1384.46 319.421Z" fill="#9D9D9C"/>
<path d="M1384.46 1148.24V1022.26H1270.84L1235.37 1057.73H1348.93V1183.76L1384.46 1148.24Z" fill="#9D9D9C"/>
<path d="M355.022 354.945V1348.79L319.555 1384.31V354.945H355.022Z" fill="#9D9D9C"/>
<path d="M738.299 813.398L1203.02 1334.18L1223.64 1356.59L1200.42 1384.31L690.758 813.398H738.299Z" fill="#9D9D9C"/>
<path d="M0.0585938 35.4648V1384.31H319.558V354.943H1348.93V35.4648H0.0585938Z" fill="white"/>
<path d="M1235.37 1057.73L1348.93 1183.42V1057.73H1235.37Z" fill="white"/>
<path d="M1348.93 776.777V635.897C1348.93 635.897 1348.93 598.121 1311.1 598.121H564.426V1384.31H1200.88L692.202 814.611H1311.1C1311.1 814.611 1348.93 814.611 1348.93 776.777Z" fill="white"/>
<path d="M160.82 1753.58H177.167C193.457 1753.58 206.397 1747.17 215.87 1734.4C224.593 1722.79 228.983 1708.76 228.983 1692.18C228.983 1675.6 224.593 1661.57 215.87 1649.96C206.397 1637.19 193.515 1630.78 177.167 1630.78H0.117188V1813.13H42.6901V1673.35H174.683C182.482 1673.35 186.41 1679.65 186.41 1692.18C186.41 1704.71 182.482 1711.01 174.683 1711.01H65.0453L156.256 1813.19H214.426L160.82 1753.58Z" fill="white"/>
<path d="M623.866 1630.78L560.729 1755.72L496.494 1630.78H448.953L542.244 1813.19H578.463L671.407 1630.78H623.866Z" fill="white"/>
<path d="M1097.6 1717.65C1087.66 1706.33 1075.07 1700.67 1059.88 1700.67H945.039C939.089 1700.67 936.143 1696.17 936.143 1687.21C936.143 1678.26 939.089 1673.35 945.039 1673.35H1102.91V1630.78H945.386C930.251 1630.78 917.832 1636.32 908.127 1647.47C898.423 1658.62 893.57 1671.85 893.57 1687.21C893.57 1702.58 898.307 1715.57 907.78 1726.26C917.716 1737.64 930.251 1743.3 945.386 1743.3H1059.99C1065.88 1743.3 1068.89 1747.86 1068.89 1756.99C1068.89 1766.11 1065.94 1770.62 1059.99 1770.62H902.466V1813.19H1059.99C1075.13 1813.19 1087.66 1807.53 1097.6 1796.21C1106.84 1785.35 1111.46 1772.29 1111.46 1756.93C1111.46 1741.57 1106.84 1728.51 1097.6 1717.65Z" fill="white"/>
<path d="M443.291 1687.04C443.291 1671.73 438.67 1658.62 429.427 1647.76C419.492 1636.44 406.957 1630.78 391.822 1630.78H348.498V1673.35H391.822C397.714 1673.35 400.718 1677.91 400.718 1686.98C400.718 1696.05 397.772 1700.67 391.822 1700.67H278.66V1743.24H391.707C406.899 1743.24 419.434 1737.58 429.369 1726.26C438.612 1715.4 443.233 1702.35 443.233 1686.98" fill="white"/>
<path d="M872.256 1687.04C872.256 1671.73 867.635 1658.62 858.392 1647.76C848.456 1636.44 835.921 1630.78 820.787 1630.78H777.463V1673.35H820.787C826.679 1673.35 829.683 1677.91 829.683 1686.98C829.683 1696.05 826.737 1700.67 820.787 1700.67H707.625V1743.24H820.671C835.864 1743.24 848.399 1737.58 858.334 1726.26C867.577 1715.4 872.198 1702.35 872.198 1686.98" fill="white"/>
<path d="M1326.75 1630.78H1119.55V1673.41H1201.86V1813.19H1244.44V1673.41H1326.75V1630.78Z" fill="white"/>
<path d="M1384.46 1630.78H1341.88V1813.13H1384.46V1630.78Z" fill="white"/>
<path d="M378.303 1630.78H302.053C285.475 1630.78 271.438 1636.27 259.827 1647.24C248.216 1658.22 242.439 1671.96 242.439 1688.48V1755.43C242.439 1771.95 248.216 1785.7 259.827 1796.67C271.438 1807.64 285.475 1813.13 302.053 1813.13H443.289V1770.56H302.053C290.673 1770.56 285.012 1765.48 285.012 1755.37V1688.54C285.012 1678.43 290.673 1673.35 302.053 1673.35H400.543L378.303 1630.78Z" fill="white"/>
<path d="M807.268 1630.78H731.018C714.439 1630.78 700.402 1636.27 688.791 1647.24C677.181 1658.22 671.404 1671.96 671.404 1688.48V1755.43C671.404 1771.95 677.181 1785.7 688.791 1796.67C700.402 1807.64 714.439 1813.13 731.018 1813.13H872.254V1770.56H731.018C719.638 1770.56 713.977 1765.48 713.977 1755.37V1688.54C713.977 1678.43 719.638 1673.35 731.018 1673.35H829.507L807.268 1630.78Z" fill="white"/>
<path d="M410.883 1933.16C410.883 1917.85 406.261 1904.74 397.019 1893.88C387.083 1882.56 374.548 1876.9 359.414 1876.9H316.09V1919.47H359.414C365.306 1919.47 368.31 1924.03 368.31 1933.1C368.31 1942.17 365.364 1946.79 359.414 1946.79H246.252V1989.36H359.298C374.49 1989.36 387.026 1983.7 396.961 1972.38C406.204 1961.52 410.825 1948.47 410.825 1933.1" fill="white"/>
<path d="M200.214 1934.6C200.214 1918.08 194.495 1904.34 183 1893.36C171.505 1882.39 157.526 1876.9 140.947 1876.9H0.0578216V1919.47H141.236C152.153 1919.47 157.583 1924.55 157.583 1934.66V2001.49C157.583 2011.6 152.096 2016.68 141.178 2016.68H42.5729V1944.31H0V2059.25H140.889C157.468 2059.25 171.447 2053.77 182.942 2042.79C194.437 2031.82 200.156 2018.07 200.156 2001.55V1934.6H200.214Z" fill="white"/>
<path d="M626.81 2016.68H485.575C474.195 2016.68 468.534 2011.6 468.534 2001.49V1934.66C468.534 1924.5 474.195 1919.47 485.575 1919.47H626.81V1876.9H485.575C468.996 1876.9 454.959 1882.39 443.348 1893.36C431.738 1904.34 425.961 1918.08 425.961 1934.6V2001.55C425.961 2018.07 431.738 2031.82 443.348 2042.79C454.959 2053.77 468.996 2059.25 485.575 2059.25H626.81V2016.68Z" fill="white"/>
<path d="M345.897 1876.9H269.647C253.068 1876.9 239.031 1882.39 227.421 1893.36C215.81 1904.34 210.033 1918.08 210.033 1934.6V2001.55C210.033 2018.07 215.81 2031.82 227.421 2042.79C239.031 2053.77 253.068 2059.25 269.647 2059.25H410.883V2016.68H269.647C258.267 2016.68 252.606 2011.6 252.606 2001.49V1934.66C252.606 1924.55 258.267 1919.47 269.647 1919.47H368.137L345.897 1876.9Z" fill="white"/>
<path d="M764.351 1968.28L849.844 1876.9H791.674L706.875 1968.28L798.086 2059.26H856.256L764.351 1968.28Z" fill="white"/>
<path d="M684.518 1876.9H641.945V2059.26H684.518V1876.9Z" fill="white"/>
</svg>
