<svg width="1385" height="430" viewBox="0 0 1385 430" fill="none" xmlns="http://www.w3.org/2000/svg">
<path d="M160.82 123.58H177.167C193.457 123.58 206.397 117.169 215.87 104.403C224.593 92.7933 228.983 78.7573 228.983 62.1797C228.983 45.6022 224.593 31.5662 215.87 19.9561C206.397 7.19086 193.515 0.779297 177.167 0.779297H0.117188V183.132H42.6901V43.3494H174.683C182.482 43.3494 186.41 49.6455 186.41 62.1797C186.41 74.714 182.482 81.0098 174.683 81.0098H65.0453L156.256 183.19H214.426L160.82 123.58Z" fill="#008AAF"/>
<path d="M623.866 0.779297L560.729 125.717L496.494 0.779297H448.953L542.244 183.19H578.463L671.407 0.779297H623.866Z" fill="#008AAF"/>
<path d="M1097.6 87.6525C1087.66 76.3313 1075.07 70.6707 1059.88 70.6707H945.039C939.089 70.6707 936.143 66.1652 936.143 57.2122C936.143 48.2591 939.089 43.3494 945.039 43.3494H1102.91V0.779297H945.386C930.251 0.779297 917.832 6.3243 908.127 17.4723C898.423 28.6202 893.57 41.8476 893.57 57.2122C893.57 72.5767 898.307 85.5731 907.78 96.2589C917.716 107.638 930.251 113.299 945.386 113.299H1059.99C1065.88 113.299 1068.89 117.862 1068.89 126.988C1068.89 136.114 1065.94 140.62 1059.99 140.62H902.466V183.19H1059.99C1075.13 183.19 1087.66 177.529 1097.6 166.208C1106.84 155.349 1111.46 142.295 1111.46 126.93C1111.46 111.566 1106.84 98.5117 1097.6 87.6525Z" fill="#008AAF"/>
<path d="M443.291 57.0389C443.291 41.7321 438.67 28.6203 429.427 17.7612C419.492 6.43993 406.957 0.779297 391.822 0.779297H348.498V43.3494H391.822C397.714 43.3494 400.718 47.9127 400.718 56.9812C400.718 66.0498 397.772 70.6707 391.822 70.6707H278.66V113.241H391.707C406.899 113.241 419.434 107.58 429.369 96.2589C438.612 85.3998 443.233 72.3458 443.233 56.9812" fill="#008AAF"/>
<path d="M872.256 57.0389C872.256 41.7321 867.635 28.6203 858.392 17.7612C848.456 6.43993 835.921 0.779297 820.787 0.779297H777.463V43.3494H820.787C826.679 43.3494 829.683 47.9127 829.683 56.9812C829.683 66.0498 826.737 70.6707 820.787 70.6707H707.625V113.241H820.671C835.864 113.241 848.399 107.58 858.334 96.2589C867.577 85.3998 872.198 72.3458 872.198 56.9812" fill="#008AAF"/>
<path d="M1326.75 0.779297H1119.55V43.4073H1201.86V183.19H1244.44V43.4073H1326.75V0.779297Z" fill="#008AAF"/>
<path d="M1384.46 0.779297H1341.88V183.132H1384.46V0.779297Z" fill="#008AAF"/>
<path d="M378.305 0.779297H302.055C285.476 0.779297 271.44 6.26667 259.829 17.2413C248.218 28.216 242.441 41.9631 242.441 58.4829V125.428C242.441 141.948 248.218 155.695 259.829 166.67C271.44 177.645 285.476 183.132 302.055 183.132H443.291V140.562H302.055C290.675 140.562 285.014 135.479 285.014 125.371V58.5407C285.014 48.4325 290.675 43.3495 302.055 43.3495H400.545L378.305 0.779297Z" fill="#008AAF"/>
<path d="M807.27 0.779297H731.02C714.441 0.779297 700.404 6.26667 688.793 17.2413C677.183 28.216 671.406 41.9631 671.406 58.4829V125.428C671.406 141.948 677.183 155.695 688.793 166.67C700.404 177.645 714.441 183.132 731.02 183.132H872.256V140.562H731.02C719.64 140.562 713.979 135.479 713.979 125.371V58.5407C713.979 48.4325 719.64 43.3495 731.02 43.3495H829.509L807.27 0.779297Z" fill="#008AAF"/>
<path d="M410.885 303.16C410.885 287.853 406.263 274.741 397.021 263.882C387.085 252.561 374.55 246.9 359.416 246.9H316.092V289.471H359.416C365.308 289.471 368.312 294.034 368.312 303.102C368.312 312.171 365.366 316.792 359.416 316.792H246.254V359.362H359.3C374.492 359.362 387.028 353.701 396.963 342.38C406.206 331.521 410.827 318.467 410.827 303.102" fill="#9D9D9C"/>
<path d="M200.214 304.604C200.214 288.084 194.495 274.337 183 263.362C171.505 252.388 157.526 246.9 140.947 246.9H0.0578216V289.471H141.236C152.153 289.471 157.583 294.554 157.583 304.662V371.492C157.583 381.6 152.096 386.683 141.178 386.683H42.5729V314.308H0V429.253H140.889C157.468 429.253 171.447 423.766 182.942 412.791C194.437 401.817 200.156 388.069 200.156 371.55V304.604H200.214Z" fill="#9D9D9C"/>
<path d="M626.81 386.683H485.575C474.195 386.683 468.534 381.6 468.534 371.492V304.662C468.534 294.496 474.195 289.471 485.575 289.471H626.81V246.9H485.575C468.996 246.9 454.959 252.388 443.348 263.362C431.738 274.337 425.961 288.084 425.961 304.604V371.55C425.961 388.069 431.738 401.817 443.348 412.791C454.959 423.766 468.996 429.253 485.575 429.253H626.81V386.683Z" fill="#9D9D9C"/>
<path d="M345.899 246.9H269.649C253.07 246.9 239.033 252.388 227.423 263.362C215.812 274.337 210.035 288.084 210.035 304.604V371.55C210.035 388.069 215.812 401.817 227.423 412.791C239.033 423.766 253.07 429.253 269.649 429.253H410.885V386.683H269.649C258.269 386.683 252.608 381.6 252.608 371.492V304.662C252.608 294.554 258.269 289.471 269.649 289.471H368.139L345.899 246.9Z" fill="#9D9D9C"/>
<path d="M764.351 338.281L849.844 246.902H791.674L706.875 338.281L798.086 429.255H856.256L764.351 338.281Z" fill="#9D9D9C"/>
<path d="M684.518 246.902H641.945V429.255H684.518V246.902Z" fill="#9D9D9C"/>
</svg>
