<svg width="626" height="513" viewBox="0 0 626 513" fill="none" xmlns="http://www.w3.org/2000/svg">
<path d="M624 230.768C623.183 229.62 604.236 203.369 579.713 197.504C571.034 186.957 525.989 133.613 489.246 116.388C464.301 104.699 434.491 104.114 411.433 114.85C392.139 123.84 378.968 139.722 373.353 160.792C372.815 162.799 373.316 164.948 374.683 166.51C376.056 168.085 378.094 168.848 380.17 168.604C393.568 166.913 431.8 165.595 447.578 179.535C449.515 181.248 451.784 183.35 454.213 185.643L393.839 235.704C388.426 234.485 383.018 233.285 377.674 232.11C322.296 219.94 282.539 216.138 282.148 216.095C281.159 216.004 280.183 216.138 279.266 216.504C278.961 216.627 247.845 228.839 192.969 245.063C138.019 261.304 12.0176 305.244 10.7551 305.683C7.49634 306.824 5.77509 310.383 6.91009 313.642C8.05134 316.913 11.6526 318.647 14.8688 317.487C16.1326 317.047 141.853 273.205 196.509 257.049C245.355 242.608 275.659 231.274 282.416 228.692C289.954 229.479 326.338 233.629 375.41 244.408C426.74 255.693 490.626 269.738 492.378 299.724C494.054 328.473 483.47 343.998 459.528 348.549C451.381 324.528 430.074 303.863 428.956 302.788C426.479 300.408 422.511 300.487 420.125 302.983C417.739 305.473 417.824 309.428 420.308 311.814C420.613 312.107 450.459 341.057 450.178 366.343C450.045 378.084 428.315 387.865 412.794 390.412C408.97 362.93 384.233 336.227 382.715 334.617C380.365 332.102 376.41 331.98 373.884 334.342C371.369 336.704 371.248 340.659 373.603 343.173C374.06 343.655 418.763 391.947 392.213 417.099C383.618 425.242 369.129 428.277 362.828 429.255C360.516 407.727 343.503 380.975 338.929 374.137C337.019 371.268 333.136 370.48 330.261 372.422C327.393 374.338 326.624 378.22 328.54 381.089C341.65 400.705 356.958 433.622 348.175 441.972C334.826 454.679 312.153 458.353 298.328 451.218L308.569 440.147C309.331 439.323 309.856 438.309 310.089 437.217L316.205 408.683C316.815 405.85 315.399 402.977 312.794 401.73C310.89 400.82 265.339 379.678 179.596 394.693C96.1613 409.31 5.82259 445.23 4.92009 445.59C1.71634 446.872 0.15384 450.51 1.43509 453.714C2.72259 456.924 6.39134 458.475 9.55884 457.199C10.4501 456.839 99.6226 421.395 181.758 407.01C201.481 403.552 218.715 402.262 233.946 402.065L173.304 459.917C171.839 461.314 171.143 463.334 171.436 465.337C177.845 509.635 213.258 512.944 223.676 512.944C225.446 512.944 226.496 512.853 226.564 512.846C227.84 512.713 229.041 512.194 230.013 511.358L289.239 460.18C296.561 465.082 305.349 467.432 314.485 467.432C329.964 467.432 346.18 461.127 356.795 451.032C359.434 448.523 361.089 445.43 362.069 441.993C367.345 441.368 388.101 438.219 400.808 426.179C408.191 419.183 411.675 411.23 412.775 403.023L412.808 403.029C413.113 403.029 413.424 403.004 413.735 402.962C432.534 400.16 462.441 387.782 462.679 366.48C462.7 364.545 462.588 362.604 462.363 360.67C492.079 354.759 506.878 333.682 504.855 298.994C503.976 283.947 493.764 272.542 478.251 263.452L507.149 239.105C513.373 245.599 518.333 250.819 520.889 253.518C520.889 260.623 524.361 276.467 549.276 298.727C550.46 299.783 551.95 300.314 553.439 300.314C554.946 300.314 556.454 299.77 557.65 298.684L623.123 239.017C625.46 236.887 625.838 233.344 624 230.768ZM553.468 285.578C531.671 264.624 533.375 252.998 533.356 252.998C533.966 250.874 533.418 248.579 531.898 246.968C529.676 244.618 477.246 189.077 455.854 170.173C438.453 154.78 405.018 154.45 388.385 155.378C393.958 142.274 403.62 132.277 416.711 126.179C436.505 116.963 462.261 117.543 483.935 127.705C521.295 145.223 570.898 206.465 571.393 207.082C572.339 208.254 573.663 209.04 575.14 209.309C590.424 212.098 604.205 226.393 610.388 233.705L553.468 285.578ZM387.355 8.38037C386.201 5.12663 387.899 1.55661 391.151 0.396612C394.374 -0.769636 397.981 0.934126 399.135 4.19287L418.703 59.2216C419.856 62.4754 418.159 66.0454 414.906 67.2054C414.216 67.4491 413.509 67.5654 412.813 67.5654C410.243 67.5654 407.833 65.9729 406.923 63.4091L387.355 8.38037ZM205.8 130.292C206.649 126.934 210.043 124.914 213.399 125.769L218.764 127.13C229.469 129.853 254.305 136.182 276.136 141.993C279.475 142.884 281.459 146.308 280.574 149.64C279.829 152.442 277.296 154.285 274.538 154.285C274 154.285 273.464 154.218 272.926 154.078C251.143 148.279 226.369 141.963 215.694 139.247L210.323 137.892C206.978 137.037 204.951 133.637 205.8 130.292ZM282.759 51.7641C280.153 49.4941 279.878 45.5504 282.143 42.9441C284.425 40.3254 288.356 40.0691 290.963 42.3279L294.661 45.5379C303.958 53.6128 328.64 75.1029 345.26 90.0991C347.824 92.4066 348.025 96.3616 345.711 98.9253C344.479 100.293 342.775 100.988 341.073 100.988C339.578 100.988 338.081 100.457 336.885 99.3766C320.326 84.4416 295.729 63.0241 286.47 54.9791L282.759 51.7641Z" fill="#9D9D9C"/>
</svg>
