<svg width="141" height="141" viewBox="0 0 141 141" fill="none" xmlns="http://www.w3.org/2000/svg">
<path d="M37.0301 33.4703C36.4449 32.8845 35.5757 32.6141 34.7576 32.7774C34.6003 32.8154 34.4367 32.8592 34.2855 32.9225C34.1343 32.9853 33.9898 33.0671 33.8515 33.1555C33.7127 33.2494 33.5871 33.3502 33.4674 33.4703C33.0014 33.9357 32.731 34.5842 32.731 35.2518C32.731 35.9127 33.0014 36.561 33.4674 37.0264C33.5871 37.1462 33.7127 37.2533 33.8515 37.3412C33.9898 37.4359 34.1343 37.5114 34.2855 37.5742C34.4367 37.6375 34.6003 37.6879 34.7576 37.7193C34.9211 37.7507 35.0853 37.7697 35.2489 37.7697C35.9159 37.7697 36.5644 37.4987 37.0304 37.0264C37.5024 36.561 37.7668 35.9125 37.7668 35.2518C37.7668 34.5842 37.5024 33.9357 37.0301 33.4703Z" fill="#9D9D9C"/>
<path d="M65.4129 17.1356C65.3815 16.9721 65.3371 16.8148 65.2746 16.6636C65.2113 16.5124 65.1295 16.3613 65.0416 16.2291C64.9469 16.0908 64.8461 15.9586 64.7269 15.8454C64.6137 15.7317 64.4809 15.6249 64.3427 15.5307C64.2105 15.4423 64.0593 15.3605 63.9087 15.2977C63.7575 15.2344 63.6 15.1906 63.4367 15.1526C63.115 15.0898 62.782 15.0898 62.4543 15.1526C62.2971 15.1906 62.1335 15.2344 61.9823 15.2977C61.8311 15.3605 61.6865 15.4423 61.5483 15.5307C61.4095 15.6246 61.2839 15.7317 61.1641 15.8454C61.0509 15.9586 60.9441 16.0908 60.8557 16.2291C60.7618 16.3613 60.686 16.5124 60.6227 16.6636C60.5599 16.8148 60.5095 16.9721 60.4781 17.1356C60.4467 17.2929 60.4277 17.4625 60.4277 17.6269C60.4277 17.7905 60.4467 17.9538 60.4781 18.1174C60.5095 18.2747 60.5599 18.4322 60.6227 18.5894C60.686 18.7406 60.7615 18.8858 60.8557 19.024C60.9441 19.1622 61.0512 19.2884 61.1641 19.4082C61.2839 19.5214 61.4095 19.6282 61.5483 19.7161C61.6865 19.8108 61.8311 19.8863 61.9823 19.949C62.1335 20.0124 62.2971 20.0628 62.4543 20.0942C62.6179 20.1256 62.782 20.1446 62.9456 20.1446C63.1092 20.1446 63.2725 20.1256 63.4369 20.0942C63.6005 20.0628 63.7578 20.0124 63.9089 19.949C64.0596 19.8863 64.2047 19.8108 64.343 19.7161C64.4812 19.6282 64.6073 19.5211 64.7271 19.4082C64.8403 19.2884 64.9472 19.1622 65.0419 19.024C65.1298 18.8858 65.2115 18.7406 65.2749 18.5894C65.3377 18.4322 65.3817 18.2747 65.4131 18.1174C65.4506 17.9538 65.4635 17.7903 65.4635 17.6269C65.4633 17.4628 65.4503 17.2932 65.4129 17.1356Z" fill="#9D9D9C"/>
<path d="M52.1375 114.043C51.5523 113.457 50.6832 113.186 49.865 113.35C49.7077 113.388 49.5441 113.432 49.393 113.495C49.2418 113.558 49.0972 113.639 48.9589 113.728C48.8201 113.822 48.6946 113.929 48.5748 114.043C48.4616 114.156 48.3547 114.288 48.2663 114.426C48.1724 114.558 48.0967 114.71 48.0334 114.861C47.9706 115.012 47.9202 115.169 47.8888 115.333C47.8574 115.49 47.8384 115.66 47.8384 115.824C47.8384 116.485 48.1088 117.133 48.5748 117.606C49.0468 118.071 49.6953 118.342 50.3563 118.342C50.5199 118.342 50.6832 118.323 50.8476 118.292C51.0112 118.26 51.1684 118.21 51.3196 118.147C51.4702 118.084 51.6214 118.008 51.7536 117.914C51.8919 117.826 52.018 117.719 52.1378 117.606C52.251 117.486 52.3578 117.36 52.4526 117.221C52.5404 117.083 52.6222 116.938 52.6855 116.787C52.7483 116.636 52.7924 116.472 52.8238 116.315C52.8612 116.151 52.8742 115.988 52.8742 115.824C52.8739 115.156 52.6032 114.508 52.1375 114.043Z" fill="#9D9D9C"/>
<path d="M89.9054 116.559C89.4333 116.087 88.7848 115.822 88.1239 115.822C87.4629 115.822 86.8144 116.087 86.3424 116.559C85.8764 117.024 85.606 117.673 85.606 118.34C85.606 118.504 85.625 118.667 85.6564 118.831C85.6878 118.988 85.7381 119.145 85.8009 119.303C85.8643 119.454 85.9397 119.599 86.0339 119.737C86.1223 119.875 86.2294 120.002 86.3424 120.121C86.8144 120.587 87.4629 120.851 88.1239 120.851C88.2874 120.851 88.4507 120.839 88.6152 120.808C88.7787 120.776 88.936 120.726 89.0872 120.663C89.2378 120.6 89.389 120.524 89.5212 120.43C89.6594 120.342 89.7922 120.235 89.9054 120.122C90.0246 120.002 90.1254 119.876 90.2201 119.737C90.308 119.599 90.3898 119.454 90.4531 119.303C90.5159 119.152 90.56 118.988 90.5914 118.831C90.6288 118.667 90.6418 118.504 90.6418 118.34C90.6418 117.673 90.3713 117.024 89.9054 116.559Z" fill="#9D9D9C"/>
<path d="M90.5911 59.9343C90.5597 59.7771 90.5093 59.6195 90.4459 59.4683C90.3895 59.3172 90.3077 59.166 90.2199 59.0338C90.1251 58.8955 90.0243 58.7633 89.9051 58.6502C89.7919 58.5364 89.6592 58.4296 89.5209 58.3354C89.3887 58.247 89.2375 58.1652 89.0869 58.1024C88.9357 58.0391 88.7782 57.9953 88.6149 57.9642C88.2932 57.8948 87.9603 57.8948 87.6326 57.9642C87.469 57.9956 87.3117 58.0391 87.1605 58.1024C87.0093 58.1652 86.8648 58.247 86.7265 58.3354C86.5877 58.4293 86.4621 58.5364 86.3424 58.6502C86.2292 58.7633 86.1223 58.8955 86.0339 59.0338C85.94 59.166 85.8643 59.3111 85.8009 59.4683C85.7381 59.6195 85.6877 59.7768 85.6563 59.9343C85.625 60.0979 85.606 60.2675 85.606 60.4317C85.606 60.5952 85.625 60.7585 85.6563 60.9221C85.6877 61.0794 85.7381 61.2435 85.8009 61.3941C85.8643 61.5453 85.9397 61.6905 86.0339 61.8287C86.1223 61.967 86.2294 62.0931 86.3424 62.2063C86.4621 62.3261 86.5877 62.4332 86.7265 62.521C86.8648 62.6158 87.0093 62.6912 87.1605 62.754C87.3117 62.8174 87.469 62.8678 87.6326 62.8992C87.7961 62.9306 87.9603 62.9496 88.1239 62.9496C88.2874 62.9496 88.4507 62.9306 88.6152 62.8992C88.7787 62.8678 88.936 62.8174 89.0872 62.754C89.2378 62.6912 89.3829 62.6158 89.5212 62.521C89.6594 62.4332 89.7856 62.3261 89.9054 62.2063C90.0183 62.0931 90.1254 61.9672 90.2201 61.8287C90.308 61.6905 90.3837 61.5453 90.4462 61.3941C90.5096 61.2369 90.56 61.0794 90.5914 60.9221C90.6288 60.7585 90.6418 60.595 90.6418 60.4317C90.6415 60.2673 90.6285 60.0976 90.5911 59.9343Z" fill="#9D9D9C"/>
<path d="M70.5 0C31.6264 0 0 31.6264 0 70.5C0 109.374 31.6264 141 70.5 141C109.374 141 141 109.374 141 70.5C141 31.6264 109.374 0 70.5 0ZM70.5 135.964C34.4029 135.964 5.03579 106.597 5.03579 70.5C5.03579 34.4029 34.4029 5.03579 70.5 5.03579C106.597 5.03579 135.964 34.4029 135.964 70.5C135.964 106.597 106.597 135.964 70.5 135.964Z" fill="#9D9D9C"/>
<path d="M51.7707 92.9206L30.3795 71.5293C26.4607 67.6105 20.0776 67.6155 16.1503 71.5428C12.2235 75.4691 12.2174 81.8521 16.1363 85.772H16.1368L37.528 107.163C39.4852 109.121 42.0571 110.099 44.6304 110.099C47.2102 110.099 49.792 109.116 51.758 107.15C55.6846 103.223 55.6909 96.8399 51.7707 92.9206ZM48.1975 103.589C46.2334 105.552 43.0449 105.56 41.0883 103.603L19.6971 82.2117H19.6976C17.7415 80.2556 17.7478 77.0666 19.7105 75.1031C21.6741 73.1398 24.8631 73.1335 26.8192 75.0896L48.2105 96.4808C50.1663 98.4377 50.1608 101.626 48.1975 103.589Z" fill="#9D9D9C"/>
<path d="M119.753 40.0456L98.3619 18.6543C94.4436 14.7355 88.0606 14.7405 84.1327 18.6678C80.2059 22.5941 80.1999 28.9771 84.1187 32.897H84.1192L105.51 54.2882C107.468 56.246 110.04 57.2242 112.613 57.2242C115.193 57.2242 117.774 56.2407 119.74 54.2747C123.667 50.3482 123.673 43.9649 119.753 40.0456ZM116.18 50.7145C114.216 52.6772 111.027 52.6846 109.071 50.728L87.6795 29.3367H87.68C85.7239 27.3806 85.7303 24.1916 87.693 22.2281C89.6565 20.264 92.8455 20.2593 94.8016 22.2146L116.193 43.6058C118.149 45.5627 118.143 48.7512 116.18 50.7145Z" fill="#9D9D9C"/>
<path d="M81.9727 41.3285C78.0459 37.4011 71.662 37.3948 67.7427 41.315L46.3506 62.7062C42.4318 66.6261 42.4379 73.0094 46.3647 76.9354C48.3304 78.902 50.9116 79.8848 53.4915 79.8848C56.0647 79.8848 58.6372 78.9061 60.5938 76.9489L81.9851 55.5576C85.9055 51.6383 85.8992 45.2553 81.9727 41.3285ZM78.4251 51.9974L57.0338 73.3886C55.0783 75.3447 51.8893 75.3384 49.9252 73.3751C47.9625 71.4116 47.9564 68.2226 49.9117 66.2665L71.3029 44.8359C72.2472 43.8924 73.5041 43.3336 74.8442 43.3336C74.8467 43.3336 74.8497 43.3336 74.8527 43.3336C76.1977 43.3336 77.4615 43.8998 78.4119 44.8493C80.3754 46.8129 80.3812 50.0407 78.4251 51.9974Z" fill="#9D9D9C"/>
<path d="M108.287 88.0254H78.0347C72.4919 88.0254 67.9824 92.5435 67.9824 98.0967C67.9824 103.65 72.4919 108.168 78.0347 108.168H108.287C113.83 108.168 118.34 103.65 118.34 98.0967C118.339 92.5435 113.83 88.0254 108.287 88.0254ZM108.287 103.132H78.0347C75.2684 103.132 73.0179 100.873 73.0179 98.0967C73.0179 95.3199 75.2684 93.0609 78.0347 93.0609H108.287C111.054 93.0609 113.304 95.3199 113.304 98.0967C113.304 100.873 111.053 103.132 108.287 103.132Z" fill="#9D9D9C"/>
</svg>
