<svg width="91" height="112" viewBox="0 0 91 112" fill="none" xmlns="http://www.w3.org/2000/svg">
<path d="M72.1542 36.5627C73.0222 33.8625 73.5 30.9873 73.5 28C73.5 12.537 60.9647 0 45.5 0C30.0353 0 17.5 12.537 17.5 28C17.5 30.9873 17.9777 33.8625 18.8457 36.5627C7.88375 40.3585 0 50.7465 0 63C0 78.463 12.5353 91 28 91C31.7188 91 35.2555 90.2475 38.5 88.928V110.25C38.5 111.218 39.2823 112 40.25 112H50.75C51.7177 112 52.5 111.218 52.5 110.25V88.928C55.7445 90.2475 59.2812 91 63 91C78.4647 91 91 78.463 91 63C91 50.7465 83.1162 40.3585 72.1542 36.5627ZM49 108.5H42V87.2235C43.225 86.5112 44.3992 85.7203 45.5 84.8383C46.6008 85.7203 47.775 86.5112 49 87.2235V108.5ZM63 87.5C57.9022 87.5 53.1772 85.9338 49.2572 83.2685L60.7775 71.75H68.25C69.2177 71.75 70 70.9677 70 70C70 69.0323 69.2177 68.25 68.25 68.25H61.25V61.25C61.25 60.2823 60.4677 59.5 59.5 59.5C58.5323 59.5 57.75 60.2823 57.75 61.25V69.8215L47.25 80.3232V78.75V58.4745L53.7565 51.968C54.4407 51.2837 54.4425 50.176 53.7583 49.4918C53.074 48.8075 51.9418 48.8337 51.2575 49.518L45.5 55.2755L39.669 49.4445C38.9847 48.7602 38.0345 48.9177 37.352 49.602C36.666 50.288 36.5907 51.3187 37.275 52.003L43.75 58.478V78.75V80.3215L33.25 69.8268V61.25C33.25 60.2823 32.4677 59.5 31.5 59.5C30.5323 59.5 29.75 60.2823 29.75 61.25V68.25H22.75C21.7823 68.25 21 69.0323 21 70C21 70.9677 21.7823 71.75 22.75 71.75H30.2225L41.7428 83.2685C37.8228 85.9338 33.0978 87.5 28 87.5C14.469 87.5 3.5 76.531 3.5 63C3.5 50.9758 12.166 40.9973 23.59 38.9165C21.9467 35.6265 21 31.927 21 28C21 14.469 31.969 3.5 45.5 3.5C59.031 3.5 70 14.469 70 28C70 31.927 69.0533 35.6265 67.41 38.9165C78.834 40.9973 87.5 50.9758 87.5 63C87.5 76.531 76.531 87.5 63 87.5Z" fill="#9D9D9C"/>
</svg>
