<svg width="94" height="112" viewBox="0 0 94 112" fill="none" xmlns="http://www.w3.org/2000/svg">
<path d="M92.5031 108.454L79.6102 101.273L73.9602 77.4032C73.8433 76.9191 73.5376 76.4958 73.1072 76.2281L54.033 64.3972L70.3279 62.6326C70.9004 62.57 71.4145 62.2642 71.7339 61.7992L78.9459 51.2541H91.537C92.614 51.2541 93.4846 50.4036 93.4846 49.3558C93.4846 48.308 92.614 47.4575 91.537 47.4575H77.9039C77.2535 47.4575 76.6437 47.7745 76.2835 48.3023L68.9977 58.9574L53.3414 60.652L53.748 58.472L73.1772 45.2158C73.6992 44.8607 74.0087 44.2799 74.0087 43.6611V29.5491L82.802 24.4065C83.7233 23.8673 84.0231 22.7018 83.4681 21.8021C82.9151 20.9041 81.7212 20.6119 80.7961 21.1529L71.0581 26.8478C70.474 27.1895 70.1135 27.8083 70.1135 28.4746V42.6721L54.7382 53.164L56.4358 44.0638C56.4544 43.98 56.4663 43.8938 56.473 43.8063C56.4741 43.7913 56.4746 43.7764 56.4753 43.7613C56.4771 43.7278 56.4804 43.695 56.4804 43.6611V39.8645C56.4804 36.769 54.9519 34.0156 52.5922 32.2817C52.7231 30.9983 53.957 20.8814 60.3756 20.8814C70.4971 20.8814 73.6541 4.12124 73.9813 2.21155C74.1586 1.17709 73.4418 0.197528 72.3805 0.0266842C71.323 -0.147878 70.316 0.552558 70.1407 1.58527C69.4512 5.60786 66.1813 17.085 60.3756 17.085C51.8635 17.085 49.4911 26.7708 48.8858 30.6077C48.1957 30.4558 47.4791 30.3732 46.7425 30.3732C46.0059 30.3732 45.2893 30.4558 44.5992 30.6077C43.9939 26.7697 41.6215 17.0841 33.1094 17.0841C27.2882 17.0841 24.0863 5.89552 23.3443 1.5844C23.167 0.551683 22.162 -0.145034 21.1027 0.0277779C20.0432 0.198621 19.3266 1.17621 19.5037 2.2109C19.8309 4.12058 22.9879 20.8807 33.1094 20.8807C39.4989 20.8807 40.7581 30.9959 40.8923 32.2822C38.5329 34.016 37.0046 36.7694 37.0046 39.8647V43.6613C37.0046 43.695 37.0079 43.728 37.0097 43.7615C37.0106 43.7766 37.0109 43.7915 37.012 43.8066C37.0187 43.8941 37.0306 43.9803 37.0492 44.064L38.7468 53.1642L23.3715 42.6724V28.4746C23.3715 27.8083 23.0113 27.1895 22.4269 26.8478L12.6889 21.1529C11.7638 20.6119 10.5699 20.9041 10.0169 21.8021C9.46189 22.7018 9.76172 23.8675 10.683 24.4065L19.4763 29.5491V43.6611C19.4763 44.2799 19.786 44.8607 20.308 45.2158L39.7372 58.472L40.1439 60.652L24.4876 58.9574L17.2017 48.3023C16.8415 47.7747 16.2318 47.4575 15.5814 47.4575H1.94849C0.871458 47.4575 0.000902227 48.308 0.000902227 49.3558C0.000902227 50.4036 0.871458 51.2541 1.94849 51.2541H14.5396L21.7516 61.7992C22.0709 62.2642 22.5851 62.5698 23.1578 62.6326L39.4526 64.3972L20.3785 76.2281C19.9481 76.4958 19.6424 76.9191 19.5255 77.4032L13.8755 101.273L0.98255 108.454C0.0478078 108.974 -0.277613 110.134 0.258097 111.043C0.616508 111.656 1.27274 112 1.95051 112C2.27772 112 2.61077 111.92 2.91465 111.749L16.5477 104.156C17.019 103.894 17.3579 103.452 17.4807 102.935L23.1423 79.015L31.4574 73.8577C30.1001 76.1248 29.221 78.761 29.2228 81.7867C29.324 82.9428 31.856 110.102 46.7432 110.102C61.6304 110.102 64.1624 82.9426 64.2714 81.6273C64.2714 78.6899 63.4197 76.1213 62.1008 73.9024L70.3438 79.015L76.0054 102.935C76.1282 103.452 76.4671 103.894 76.9384 104.156L90.5715 111.749C90.8754 111.92 91.2084 112 91.5356 112C92.2134 112 92.8696 111.656 93.228 111.043C93.7631 110.134 93.4379 108.974 92.5031 108.454ZM49.0117 62.644H46.745C46.7434 62.644 46.7421 62.644 46.7405 62.644H44.4738L41.2855 45.5592H52.1997L49.0117 62.644ZM52.5855 39.8645V41.7628H40.9V39.8645C40.9 36.7248 43.5215 34.1696 46.7427 34.1696C49.9642 34.1696 52.5855 36.7248 52.5855 39.8645ZM46.7427 106.305C37.3417 106.305 33.7095 88.3759 33.1096 81.6273C33.1096 72.7585 43.9363 67.7373 46.7445 66.5852C49.5568 67.7317 60.3756 72.711 60.3835 81.4661C59.7759 88.3759 56.1438 106.305 46.7427 106.305Z" fill="#9D9D9C"/>
</svg>
