<svg width="128" height="138" viewBox="0 0 128 138" fill="none" xmlns="http://www.w3.org/2000/svg">
<mask id="mask0_321_20" style="mask-type:luminance" maskUnits="userSpaceOnUse" x="22" y="24" width="77" height="114">
<path d="M60.4109 137.832C60.2338 137.832 60.0601 137.829 59.8829 137.829C39.3316 137.546 22.7583 120.799 22.7583 100.179C22.7583 79.3819 60.4109 24.8723 60.4109 24.8723C60.4109 24.8723 98.0635 79.3819 98.0635 100.179C98.0635 120.972 81.2075 137.832 60.4109 137.832ZM62.887 30.0835C62.887 30.0835 92.6684 81.7115 92.6684 99.0991C92.6684 119.208 76.8887 135.587 57.0458 136.65C57.7236 136.688 58.3912 136.752 59.0792 136.752C79.4977 136.752 96.0539 120.199 96.0539 99.7769C96.0539 79.3546 62.887 30.0835 62.887 30.0835Z" fill="white"/>
</mask>
<g mask="url(#mask0_321_20)">
<path d="M60.4109 137.832C60.2338 137.832 60.0601 137.829 59.8829 137.829C39.3316 137.546 22.7583 120.799 22.7583 100.179C22.7583 79.3819 60.4109 24.8723 60.4109 24.8723C60.4109 24.8723 98.0635 79.3819 98.0635 100.179C98.0635 120.972 81.2075 137.832 60.4109 137.832ZM62.887 30.0835C62.887 30.0835 92.6684 81.7115 92.6684 99.0991C92.6684 119.208 76.8887 135.587 57.0458 136.65C57.7236 136.688 58.3912 136.752 59.0792 136.752C79.4977 136.752 96.0539 120.199 96.0539 99.7769C96.0539 79.3546 62.887 30.0835 62.887 30.0835Z" fill="white"/>
</g>
<mask id="mask1_321_20" style="mask-type:luminance" maskUnits="userSpaceOnUse" x="88" y="0" width="40" height="60">
<path d="M108.128 59.25C97.2192 59.25 88.3774 50.408 88.3774 39.4987C88.3774 28.5893 108.128 -0.00063029 108.128 -0.00063029C108.128 -0.00063029 127.876 28.5893 127.876 39.4987C127.876 50.408 119.034 59.25 108.128 59.25ZM109.426 2.73098C109.426 2.73098 125.046 29.812 125.046 38.9333C125.046 49.4816 116.769 58.0716 106.361 58.6302C106.718 58.6472 107.069 58.6812 107.427 58.6812C118.138 58.6812 126.824 49.9994 126.824 39.2875C126.824 28.5757 109.426 2.73098 109.426 2.73098Z" fill="white"/>
</mask>
<g mask="url(#mask1_321_20)">
<path d="M108.128 59.25C97.2192 59.25 88.3774 50.408 88.3774 39.4987C88.3774 28.5893 108.128 -0.00063029 108.128 -0.00063029C108.128 -0.00063029 127.876 28.5893 127.876 39.4987C127.876 50.408 119.034 59.25 108.128 59.25ZM109.426 2.73098C109.426 2.73098 125.046 29.812 125.046 38.9333C125.046 49.4816 116.769 58.0716 106.361 58.6302C106.718 58.6472 107.069 58.6812 107.427 58.6812C118.138 58.6812 126.824 49.9994 126.824 39.2875C126.824 28.5757 109.426 2.73098 109.426 2.73098Z" fill="white"/>
</g>
<mask id="mask2_321_20" style="mask-type:luminance" maskUnits="userSpaceOnUse" x="0" y="7" width="30" height="46">
<path d="M14.9248 52.0059C6.68246 52.0059 0 45.3234 0 37.0809C0 28.835 14.9248 7.2307 14.9248 7.2307C14.9248 7.2307 29.8496 28.835 29.8496 37.0809C29.8496 45.3234 23.1672 52.0059 14.9248 52.0059ZM15.9092 9.29475C15.9092 9.29475 27.7107 29.758 27.7107 36.6517C27.7107 44.6217 21.4574 51.1169 13.5931 51.5359L14.3969 51.5767C22.4928 51.5767 29.0526 45.0134 29.0526 36.9208C29.0526 28.8247 15.9092 9.29475 15.9092 9.29475Z" fill="white"/>
</mask>
<g mask="url(#mask2_321_20)">
<path d="M14.9248 52.0059C6.68246 52.0059 0 45.3234 0 37.0809C0 28.835 14.9248 7.2307 14.9248 7.2307C14.9248 7.2307 29.8496 28.835 29.8496 37.0809C29.8496 45.3234 23.1672 52.0059 14.9248 52.0059ZM15.9092 9.29475C15.9092 9.29475 27.7107 29.758 27.7107 36.6517C27.7107 44.6217 21.4574 51.1169 13.5931 51.5359L14.3969 51.5767C22.4928 51.5767 29.0526 45.0134 29.0526 36.9208C29.0526 28.8247 15.9092 9.29475 15.9092 9.29475Z" fill="white"/>
</g>
</svg>
