<svg width="120" height="120" viewBox="0 0 120 120" fill="none" xmlns="http://www.w3.org/2000/svg">
<path fill-rule="evenodd" clip-rule="evenodd" d="M24.8855 61.0845C12.36 66.7121 4.13793 75.2321 4.13793 85.0059C4.13793 95.4997 13.6221 104.545 27.72 110.123C28.7793 110.545 29.3007 111.745 28.8828 112.809C28.4607 113.872 27.2566 114.389 26.1972 113.971C10.2166 107.649 0 96.9025 0 85.0059C0 72.9025 10.589 61.9866 27.0538 55.7094C27.7945 55.428 28.6303 55.5935 29.2097 56.1356C29.7848 56.6776 30.0041 57.5011 29.7683 58.2583C29.1766 60.1535 28.8372 61.9576 28.8372 63.6542C28.8372 65.9549 29.0938 68.1935 29.5779 70.3494C29.76 71.1521 29.4497 71.9839 28.7876 72.468C24.0497 75.9604 21.1117 80.2639 21.1117 85.0059C21.1117 89.5576 23.8179 93.7039 28.2166 97.1135C35.3834 102.671 46.9655 106.213 60 106.213C72.2648 106.213 83.2428 103.072 90.4759 98.0694C91.4152 97.4197 92.7062 97.6556 93.3559 98.5949C94.0055 99.5342 93.7697 100.825 92.8303 101.475C85.0345 106.867 73.2248 110.351 60 110.351C45.9103 110.351 33.4303 106.391 25.6841 100.387C20.1434 96.0914 16.9738 90.737 16.9738 85.0059C16.9738 79.4239 19.9903 74.1894 25.2745 69.9521C24.8979 67.908 24.6993 65.8059 24.6993 63.6542C24.6993 62.8225 24.7655 61.9618 24.8855 61.0845Z" fill="#9D9D9C"/>
<path fill-rule="evenodd" clip-rule="evenodd" d="M93.327 68.8892C96.8484 71.4216 99.5256 74.3554 101.16 77.5292C101.681 78.5471 101.28 79.7926 100.262 80.314C99.2484 80.8395 97.9987 80.4381 97.4774 79.4202C95.967 76.4823 93.3436 73.8298 89.9215 71.5705C89.2222 71.1071 88.8705 70.2712 89.0318 69.4519C89.3918 67.5774 89.5822 65.6367 89.5822 63.6547C89.5822 61.8174 89.3008 59.7774 88.8001 57.5926C88.6305 56.8561 88.8787 56.0864 89.4456 55.5816C90.0084 55.0809 90.8029 54.9278 91.5146 55.1802C108.786 61.3664 120 72.5595 120 85.0064C120 92.8643 115.614 100.193 108.017 106.081C97.1794 114.481 79.7132 120.001 60.0001 120.001C58.858 120.001 57.9312 119.074 57.9312 117.932C57.9312 116.79 58.858 115.863 60.0001 115.863C78.658 115.863 95.2263 110.761 105.48 102.812C111.939 97.805 115.862 91.6892 115.862 85.0064C115.862 74.8147 106.941 65.9885 93.5049 60.3857C93.6456 61.5278 93.7201 62.6202 93.7201 63.6547C93.7201 65.434 93.5877 67.1843 93.327 68.8892Z" fill="#9D9D9C"/>
<path fill-rule="evenodd" clip-rule="evenodd" d="M60.5916 0.529844C59.9296 -0.0701555 58.953 -0.169466 58.1751 0.277431C57.4013 0.724327 56.9999 1.61812 57.1861 2.49536C57.5378 4.17122 56.9875 6.20709 55.982 8.54088C54.2151 12.6457 50.9709 17.4788 47.2551 22.6512C41.4909 30.6829 34.6096 39.4967 30.0206 47.6692C26.7847 53.4374 24.6992 58.9285 24.6992 63.654C24.6992 82.7009 40.1627 98.1643 59.2096 98.1643C78.2565 98.1643 93.7199 82.7009 93.7199 63.654C93.7199 56.0154 89.5323 45.2609 83.9709 34.7423C75.753 19.2085 64.6385 4.16295 60.5916 0.529844ZM60.9144 6.96847C60.6413 7.99053 60.2647 9.06226 59.7806 10.1795C57.9185 14.5036 54.5296 19.614 50.6151 25.0636C44.942 32.9754 38.1475 41.6443 33.6289 49.6967C30.7944 54.7492 28.8371 59.516 28.8371 63.654C28.8371 80.4167 42.4468 94.0264 59.2096 94.0264C75.9723 94.0264 89.582 80.4167 89.582 63.654C89.582 56.5119 85.5103 46.5105 80.313 36.6747C73.9737 24.6912 65.8965 12.9767 60.9144 6.96847Z" fill="#9D9D9C"/>
<path fill-rule="evenodd" clip-rule="evenodd" d="M64.465 86.8731C65.8677 86.6497 67.2374 86.2359 68.5657 85.731C82.5519 80.4386 84.5877 64.2635 82.7381 51.4317C82.5767 50.3021 81.5257 49.5159 80.396 49.6773C79.2663 49.8386 78.4801 50.8897 78.6415 52.0193C79.4608 57.7048 79.527 64.1641 77.8098 69.7917C76.1919 75.0966 72.9477 79.6483 67.1008 81.8621C66.0374 82.2676 64.9367 82.6069 63.8112 82.7848C62.6856 82.9669 61.916 84.0262 62.0939 85.1559C62.276 86.2814 63.3353 87.051 64.465 86.8731Z" fill="#9D9D9C"/>
</svg>
