<svg width="161" height="162" viewBox="0 0 161 162" fill="none" xmlns="http://www.w3.org/2000/svg">
<path fill-rule="evenodd" clip-rule="evenodd" d="M69.5278 130.364C68.8646 129.041 67.2509 128.504 65.9245 129.164C64.5981 129.827 64.0611 131.438 64.7243 132.767L67.4093 138.137C67.8792 139.077 68.827 139.619 69.8124 139.619C70.2151 139.619 70.6259 139.528 71.0126 139.338C72.339 138.674 72.876 137.061 72.2128 135.734L69.5278 130.364ZM69.5278 146.474C68.8646 145.151 67.2509 144.614 65.9245 145.274C64.5981 145.937 64.0611 147.548 64.7243 148.877L67.4093 154.247C67.8792 155.187 68.827 155.729 69.8124 155.729C70.2151 155.729 70.6259 155.638 71.0126 155.447C72.339 154.784 72.876 153.171 72.2128 151.844L69.5278 146.474ZM53.4179 119.624C52.7547 118.298 51.1437 117.764 49.8146 118.424C48.4882 119.087 47.9512 120.698 48.6144 122.027L51.2994 127.397C51.7693 128.337 52.7171 128.879 53.7025 128.879C54.1052 128.879 54.516 128.788 54.9027 128.598C56.229 127.934 56.766 126.321 56.1028 124.994L53.4179 119.624ZM53.4179 135.734C52.7547 134.408 51.1437 133.874 49.8146 134.534C48.4882 135.197 47.9512 136.808 48.6144 138.137L51.2994 143.507C51.7693 144.447 52.7171 144.989 53.7025 144.989C54.1052 144.989 54.516 144.898 54.9027 144.707C56.229 144.044 56.766 142.431 56.1028 141.104L53.4179 135.734ZM85.6377 151.844C84.9745 150.52 83.3662 149.986 82.0345 150.644C80.7081 151.307 80.1711 152.918 80.8343 154.247L83.5193 159.617C83.9891 160.557 84.9369 161.099 85.9223 161.099C86.3251 161.099 86.7359 161.008 87.1225 160.817C88.4489 160.154 88.9859 158.541 88.3227 157.214L85.6377 151.844ZM53.4179 151.844C52.7547 150.52 51.1437 149.986 49.8146 150.644C48.4882 151.307 47.9512 152.918 48.6144 154.247L51.2994 159.617C51.7693 160.557 52.7171 161.099 53.7025 161.099C54.1052 161.099 54.516 161.008 54.9027 160.817C56.229 160.154 56.766 158.541 56.1028 157.214L53.4179 151.844ZM10.2996 37.0555L15.2615 39.1122C15.5971 39.2492 15.9461 39.3163 16.2871 39.3163C17.3423 39.3163 18.3412 38.6907 18.7708 37.6597C19.3373 36.2903 18.6875 34.7169 17.3182 34.1504L12.3563 32.0937C10.9843 31.5245 9.41626 32.1796 8.84704 33.5463C8.28051 34.9156 8.93027 36.489 10.2996 37.0555ZM64.3726 18.7681C64.7082 18.905 65.0573 18.9721 65.3983 18.9721C66.4535 18.9721 67.4523 18.3465 67.8819 17.3155L69.9359 12.3536C70.5051 10.9843 69.8554 9.41357 68.4833 8.84435C67.114 8.27514 65.5459 8.92759 64.9767 10.2969L62.92 15.2588C62.3535 16.6281 63.0033 18.1989 64.3726 18.7681ZM34.1504 17.3155C34.58 18.3492 35.5788 18.9748 36.634 18.9748C36.975 18.9748 37.3213 18.9077 37.6597 18.7681C39.029 18.2042 39.6788 16.6335 39.1122 15.2615L37.0555 10.2969C36.4863 8.92759 34.9183 8.27514 33.5489 8.84435C32.1769 9.41089 31.5271 10.9816 32.0964 12.3536L34.1504 17.3155ZM2.68499 53.7025L13.4249 53.6998C14.9097 53.6998 16.1099 52.4969 16.1099 51.0148C16.1099 49.5327 14.9097 48.3298 13.4249 48.3298L2.68499 48.3325C1.20288 48.3325 0 49.5354 0 51.0175C0 52.5023 1.20288 53.7025 2.68499 53.7025ZM22.5378 26.3371C23.0614 26.8606 23.7487 27.1238 24.4361 27.1238C25.1234 27.1238 25.8108 26.8606 26.3344 26.3371C27.3842 25.2872 27.3842 23.5876 26.3344 22.5405L18.7385 14.9446C17.6887 13.8948 15.9918 13.8948 14.942 14.9446C13.8921 15.9918 13.8921 17.6914 14.942 18.7412L22.5378 26.3371ZM51.0148 16.1099C52.4996 16.1099 53.6998 14.9097 53.6998 13.4249V2.68499C53.6998 1.20288 52.4996 0 51.0148 0C49.5327 0 48.3298 1.20288 48.3298 2.68499V13.4249C48.3298 14.9097 49.5327 16.1099 51.0148 16.1099ZM77.5962 27.1238C78.2835 27.1238 78.9709 26.8606 79.4945 26.3371L87.0903 18.7412C88.1401 17.6914 88.1401 15.9918 87.0903 14.9446C86.0405 13.8948 84.3436 13.8948 83.2937 14.9446L75.6979 22.5405C74.6481 23.5876 74.6481 25.2872 75.6979 26.3371C76.2215 26.8606 76.9088 27.1238 77.5962 27.1238ZM24.173 48.2331C24.3555 48.2707 24.5354 48.2895 24.7153 48.2895C25.9638 48.2895 27.0808 47.4115 27.3412 46.1415C29.6315 34.9639 39.5875 26.8499 51.0148 26.8499C56.3015 26.8526 61.3198 28.528 65.5298 31.6963C66.7166 32.5904 68.4001 32.3488 69.2888 31.1674C70.1829 29.9806 69.944 28.2971 68.7572 27.4057C63.6101 23.5312 57.4749 21.4826 51.0148 21.4799C37.0475 21.4799 24.8791 31.4009 22.0813 45.0649C21.7833 46.5174 22.7204 47.9378 24.173 48.2331ZM83.2347 134.249H109.985C120.349 134.249 128.78 125.819 128.78 115.455C128.78 105.093 120.349 96.6596 109.985 96.6596C99.6211 96.6596 91.1903 105.093 91.1903 115.455C91.1903 116.939 92.3932 118.14 93.8753 118.14C95.3601 118.14 96.5603 116.939 96.5603 115.455C96.5603 108.052 102.585 102.03 109.985 102.03C117.388 102.03 123.41 108.052 123.41 115.455C123.41 122.857 117.388 128.879 109.985 128.879H83.2347C81.7525 128.879 80.5497 130.082 80.5497 131.564C80.5497 133.049 81.7525 134.249 83.2347 134.249ZM155.63 102.03C155.63 108.909 153.034 115.449 148.313 120.451C147.296 121.531 147.344 123.23 148.424 124.248C148.942 124.734 149.605 124.978 150.265 124.978C150.98 124.978 151.691 124.696 152.22 124.138C157.883 118.134 161 110.283 161 102.03C161 91.585 155.899 81.7418 147.352 75.7006C146.141 74.8387 144.466 75.134 143.612 76.3423C142.755 77.5532 143.043 79.2287 144.254 80.0825C151.377 85.1195 155.63 93.3249 155.63 102.03ZM144.89 128.879H131.465C129.983 128.879 128.78 130.082 128.78 131.564C128.78 133.049 129.983 134.249 131.465 134.249H144.89C150.813 134.249 155.63 139.066 155.63 144.989C155.63 150.913 150.813 155.729 144.89 155.729C141.985 155.729 139.262 154.586 137.224 152.51C136.185 151.452 134.483 151.436 133.428 152.472C132.367 153.512 132.351 155.211 133.39 156.269C136.446 159.386 140.53 161.099 144.89 161.099C153.775 161.099 161 153.874 161 144.989C161 136.107 153.775 128.879 144.89 128.879ZM118.04 139.619H99.3446C97.8625 139.619 96.6596 140.822 96.6596 142.304C96.6596 143.789 97.8625 144.989 99.3446 144.989H118.04C121.002 144.989 123.41 147.401 123.41 150.359C123.41 153.321 121.002 155.729 118.04 155.729C116.604 155.729 115.253 155.171 114.241 154.156C113.194 153.106 111.494 153.109 110.444 154.151C109.395 155.2 109.392 156.9 110.442 157.947C112.469 159.98 115.167 161.099 118.04 161.099C123.963 161.099 128.78 156.282 128.78 150.359C128.78 144.436 123.963 139.619 118.04 139.619ZM24.1649 128.879H21.4799C12.598 128.879 5.36998 121.654 5.36998 112.77C5.36998 103.888 12.598 96.6596 21.4799 96.6596C22.9647 96.6596 24.1649 95.4594 24.1649 93.9746C24.1649 92.4925 22.9647 91.2896 21.4799 91.2896C9.63643 91.2896 0 100.926 0 112.77C0 124.613 9.63643 134.249 21.4799 134.249H24.1649C29.0489 134.249 32.5716 135.74 35.0445 143.156C35.4177 144.281 36.4675 144.989 37.5898 144.989C37.8718 144.989 38.1591 144.946 38.441 144.852C39.8479 144.385 40.6078 142.863 40.1379 141.456C37.2408 132.759 32.3138 128.879 24.1649 128.879ZM60.968 45.8945C60.1411 47.1269 60.4686 48.7943 61.701 49.6213C62.9335 50.4483 64.6008 50.118 65.4278 48.8883C72.4356 38.4517 84.0751 32.2199 96.5603 32.2199C117.288 32.2199 134.15 49.0843 134.15 69.8097C134.15 73.217 133.696 76.5893 132.8 79.8355C132.405 81.2666 133.245 82.746 134.674 83.138C134.913 83.2051 135.154 83.2347 135.391 83.2347C136.567 83.2347 137.649 82.4533 137.976 81.2666C139.002 77.5532 139.52 73.7003 139.52 69.8097C139.52 46.1227 120.25 26.8499 96.5603 26.8499C82.2815 26.8499 68.9774 33.9705 60.968 45.8945ZM66.193 62.1172C65.1217 63.1402 63.4221 63.0999 62.3991 62.0286C57.2789 56.6586 50.3758 53.6998 42.9598 53.6998C28.1548 53.6998 16.1099 65.7473 16.1099 80.5497C16.1099 82.2036 16.2603 83.8522 16.5556 85.4525C16.8268 86.9104 15.8629 88.312 14.405 88.5805C14.2385 88.6127 14.0747 88.6261 13.9136 88.6261C12.6436 88.6261 11.5159 87.7213 11.277 86.4298C10.9199 84.5074 10.74 82.5312 10.74 80.5497C10.74 62.7831 25.1959 48.3298 42.9598 48.3298C51.8579 48.3298 60.1411 51.8794 66.2843 58.3206C67.3073 59.3946 67.267 61.0942 66.193 62.1172Z" fill="#9D9D9C"/>
</svg>
